<?xml version="1.0" encoding="UTF-8" standalone="no"?>
<svg
   xmlns:dc="http://purl.org/dc/elements/1.1/"
   xmlns:cc="http://creativecommons.org/ns#"
   xmlns:rdf="http://www.w3.org/1999/02/22-rdf-syntax-ns#"
   xmlns:svg="http://www.w3.org/2000/svg"
   xmlns="http://www.w3.org/2000/svg"
   xmlns:xlink="http://www.w3.org/1999/xlink"
   xmlns:sodipodi="http://sodipodi.sourceforge.net/DTD/sodipodi-0.dtd"
   xmlns:inkscape="http://www.inkscape.org/namespaces/inkscape"
   width="210mm"
   height="297mm"
   viewBox="0 0 210 297"
   version="1.1"
   id="svg8"
   inkscape:version="1.0.1 (c497b03c, 2020-09-10)"
   sodipodi:docname="logo.svg">
  <defs
     id="defs2">
    <linearGradient
       id="XMLID_17_-9"
       gradientUnits="userSpaceOnUse"
       x1="174.0737"
       y1="215.5488"
       x2="132.27631"
       y2="141.7533">
      <stop
         offset="0"
         style="stop-color:#FB7655"
         id="stop3272-4" />
      <stop
         offset="0"
         style="stop-color:#FB7655"
         id="stop3274-5" />
      <stop
         offset="0.41"
         style="stop-color:#E42B1E"
         id="stop3276-1" />
      <stop
         offset="0.99"
         style="stop-color:#990000"
         id="stop3278-0" />
      <stop
         offset="1"
         style="stop-color:#990000"
         id="stop3280-3" />
    </linearGradient>
    <linearGradient
       id="XMLID_18_-7"
       gradientUnits="userSpaceOnUse"
       x1="194.895"
       y1="153.5576"
       x2="141.0276"
       y2="117.4093">
      <stop
         offset="0"
         style="stop-color:#871101"
         id="stop3285-8" />
      <stop
         offset="0"
         style="stop-color:#871101"
         id="stop3287-8" />
      <stop
         offset="0.99"
         style="stop-color:#911209"
         id="stop3289-6" />
      <stop
         offset="1"
         style="stop-color:#911209"
         id="stop3291-0" />
    </linearGradient>
    <linearGradient
       id="XMLID_19_-4"
       gradientUnits="userSpaceOnUse"
       x1="151.79539"
       y1="217.7852"
       x2="97.929703"
       y2="181.638">
      <stop
         offset="0"
         style="stop-color:#871101"
         id="stop3296-6" />
      <stop
         offset="0"
         style="stop-color:#871101"
         id="stop3298-7" />
      <stop
         offset="0.99"
         style="stop-color:#911209"
         id="stop3300-6" />
      <stop
         offset="1"
         style="stop-color:#911209"
         id="stop3302-0" />
    </linearGradient>
    <linearGradient
       id="XMLID_20_-9"
       gradientUnits="userSpaceOnUse"
       x1="38.696301"
       y1="127.3906"
       x2="47.046902"
       y2="181.66141">
      <stop
         offset="0"
         style="stop-color:#FFFFFF"
         id="stop3307-7" />
      <stop
         offset="0"
         style="stop-color:#FFFFFF"
         id="stop3309-5" />
      <stop
         offset="0.23"
         style="stop-color:#E57252"
         id="stop3311-9" />
      <stop
         offset="0.46"
         style="stop-color:#DE3B20"
         id="stop3313-7" />
      <stop
         offset="0.99"
         style="stop-color:#A60003"
         id="stop3315-8" />
      <stop
         offset="1"
         style="stop-color:#A60003"
         id="stop3317-5" />
    </linearGradient>
    <linearGradient
       id="XMLID_21_-3"
       gradientUnits="userSpaceOnUse"
       x1="96.132797"
       y1="76.715302"
       x2="99.209602"
       y2="132.1021">
      <stop
         offset="0"
         style="stop-color:#FFFFFF"
         id="stop3322-3" />
      <stop
         offset="0"
         style="stop-color:#FFFFFF"
         id="stop3324-8" />
      <stop
         offset="0.23"
         style="stop-color:#E4714E"
         id="stop3326-3" />
      <stop
         offset="0.56"
         style="stop-color:#BE1A0D"
         id="stop3328-7" />
      <stop
         offset="0.99"
         style="stop-color:#A80D00"
         id="stop3330-9" />
      <stop
         offset="1"
         style="stop-color:#A80D00"
         id="stop3332-3" />
    </linearGradient>
    <linearGradient
       id="XMLID_22_-7"
       gradientUnits="userSpaceOnUse"
       x1="147.103"
       y1="25.521"
       x2="156.3141"
       y2="65.216202">
      <stop
         offset="0"
         style="stop-color:#FFFFFF"
         id="stop3337-8" />
      <stop
         offset="0"
         style="stop-color:#FFFFFF"
         id="stop3339-7" />
      <stop
         offset="0.18"
         style="stop-color:#E46342"
         id="stop3341-4" />
      <stop
         offset="0.4"
         style="stop-color:#C82410"
         id="stop3343-1" />
      <stop
         offset="0.99"
         style="stop-color:#A80D00"
         id="stop3345-9" />
      <stop
         offset="1"
         style="stop-color:#A80D00"
         id="stop3347-0" />
    </linearGradient>
    <linearGradient
       id="XMLID_23_-9"
       gradientUnits="userSpaceOnUse"
       x1="118.9761"
       y1="11.5415"
       x2="158.66859"
       y2="-8.3048">
      <stop
         offset="0"
         style="stop-color:#FFFFFF"
         id="stop3352-8" />
      <stop
         offset="0"
         style="stop-color:#FFFFFF"
         id="stop3354-8" />
      <stop
         offset="0.54"
         style="stop-color:#C81F11"
         id="stop3356-5" />
      <stop
         offset="0.99"
         style="stop-color:#BF0905"
         id="stop3358-8" />
      <stop
         offset="1"
         style="stop-color:#BF0905"
         id="stop3360-4" />
    </linearGradient>
    <linearGradient
       id="XMLID_24_-3"
       gradientUnits="userSpaceOnUse"
       x1="3.9033"
       y1="113.5547"
       x2="7.1701999"
       y2="146.2628">
      <stop
         offset="0"
         style="stop-color:#FFFFFF"
         id="stop3365-7" />
      <stop
         offset="0"
         style="stop-color:#FFFFFF"
         id="stop3367-1" />
      <stop
         offset="0.31"
         style="stop-color:#DE4024"
         id="stop3369-3" />
      <stop
         offset="0.99"
         style="stop-color:#BF190B"
         id="stop3371-8" />
      <stop
         offset="1"
         style="stop-color:#BF190B"
         id="stop3373-0" />
    </linearGradient>
    <linearGradient
       id="XMLID_25_-9"
       gradientUnits="userSpaceOnUse"
       x1="-18.5557"
       y1="155.10451"
       x2="135.0152"
       y2="-2.8092999">
      <stop
         offset="0"
         style="stop-color:#BD0012"
         id="stop3380-7" />
      <stop
         offset="0"
         style="stop-color:#BD0012"
         id="stop3382-9" />
      <stop
         offset="0.07"
         style="stop-color:#FFFFFF"
         id="stop3384-9" />
      <stop
         offset="0.17"
         style="stop-color:#FFFFFF"
         id="stop3386-3" />
      <stop
         offset="0.27"
         style="stop-color:#C82F1C"
         id="stop3388-2" />
      <stop
         offset="0.33"
         style="stop-color:#820C01"
         id="stop3390-4" />
      <stop
         offset="0.46"
         style="stop-color:#A31601"
         id="stop3392-3" />
      <stop
         offset="0.72"
         style="stop-color:#B31301"
         id="stop3394-7" />
      <stop
         offset="0.99"
         style="stop-color:#E82609"
         id="stop3396-1" />
      <stop
         offset="1"
         style="stop-color:#E82609"
         id="stop3398-2" />
    </linearGradient>
    <linearGradient
       id="XMLID_26_-2"
       gradientUnits="userSpaceOnUse"
       x1="99.074699"
       y1="171.0332"
       x2="52.817699"
       y2="159.61659">
      <stop
         offset="0"
         style="stop-color:#8C0C01"
         id="stop3403-0" />
      <stop
         offset="0"
         style="stop-color:#8C0C01"
         id="stop3405-2" />
      <stop
         offset="0.54"
         style="stop-color:#990C00"
         id="stop3407-1" />
      <stop
         offset="0.99"
         style="stop-color:#A80D0E"
         id="stop3409-7" />
      <stop
         offset="1"
         style="stop-color:#A80D0E"
         id="stop3411-5" />
    </linearGradient>
    <linearGradient
       id="XMLID_27_-1"
       gradientUnits="userSpaceOnUse"
       x1="178.52589"
       y1="115.5146"
       x2="137.43269"
       y2="78.683998">
      <stop
         offset="0"
         style="stop-color:#7E110B"
         id="stop3416-7" />
      <stop
         offset="0"
         style="stop-color:#7E110B"
         id="stop3418-4" />
      <stop
         offset="0.99"
         style="stop-color:#9E0C00"
         id="stop3420-1" />
      <stop
         offset="1"
         style="stop-color:#9E0C00"
         id="stop3422-7" />
    </linearGradient>
    <linearGradient
       id="XMLID_28_-1"
       gradientUnits="userSpaceOnUse"
       x1="193.6235"
       y1="47.937"
       x2="173.15421"
       y2="26.053801">
      <stop
         offset="0"
         style="stop-color:#79130D"
         id="stop3427-1" />
      <stop
         offset="0"
         style="stop-color:#79130D"
         id="stop3429-1" />
      <stop
         offset="0.99"
         style="stop-color:#9E120B"
         id="stop3431-7" />
      <stop
         offset="1"
         style="stop-color:#9E120B"
         id="stop3433-0" />
    </linearGradient>
    <radialGradient
       id="XMLID_29_-4"
       cx="143.8315"
       cy="79.388199"
       r="50.357601"
       gradientUnits="userSpaceOnUse">
      <stop
         offset="0"
         style="stop-color:#A80D00"
         id="stop3440-0" />
      <stop
         offset="0"
         style="stop-color:#A80D00"
         id="stop3442-8" />
      <stop
         offset="0.99"
         style="stop-color:#7E0E08"
         id="stop3444-5" />
      <stop
         offset="1"
         style="stop-color:#7E0E08"
         id="stop3446-1" />
    </radialGradient>
    <radialGradient
       id="XMLID_30_-6"
       cx="74.0923"
       cy="145.75101"
       r="66.943703"
       gradientUnits="userSpaceOnUse">
      <stop
         offset="0"
         style="stop-color:#A30C00"
         id="stop3451-6" />
      <stop
         offset="0"
         style="stop-color:#A30C00"
         id="stop3453-2" />
      <stop
         offset="0.99"
         style="stop-color:#800E08"
         id="stop3455-1" />
      <stop
         offset="1"
         style="stop-color:#800E08"
         id="stop3457-9" />
    </radialGradient>
    <linearGradient
       id="XMLID_31_-6"
       gradientUnits="userSpaceOnUse"
       x1="26.669901"
       y1="197.33591"
       x2="9.9886999"
       y2="140.742">
      <stop
         offset="0"
         style="stop-color:#8B2114"
         id="stop3462-4" />
      <stop
         offset="0"
         style="stop-color:#8B2114"
         id="stop3464-8" />
      <stop
         offset="0.43"
         style="stop-color:#9E100A"
         id="stop3466-0" />
      <stop
         offset="0.99"
         style="stop-color:#B3100C"
         id="stop3468-8" />
      <stop
         offset="1"
         style="stop-color:#B3100C"
         id="stop3470-1" />
    </linearGradient>
    <linearGradient
       id="XMLID_32_-0"
       gradientUnits="userSpaceOnUse"
       x1="154.6411"
       y1="9.7979002"
       x2="192.039"
       y2="26.305901">
      <stop
         offset="0"
         style="stop-color:#B31000"
         id="stop3475-2" />
      <stop
         offset="0"
         style="stop-color:#B31000"
         id="stop3477-2" />
      <stop
         offset="0.44"
         style="stop-color:#910F08"
         id="stop3479-9" />
      <stop
         offset="0.99"
         style="stop-color:#791C12"
         id="stop3481-7" />
      <stop
         offset="1"
         style="stop-color:#791C12"
         id="stop3483-5" />
    </linearGradient>
    <linearGradient
       y2="141.7533"
       x2="132.27631"
       y1="215.5488"
       x1="174.0737"
       gradientUnits="userSpaceOnUse"
       id="linearGradient3448"
       xlink:href="#XMLID_17_-9"
       inkscape:collect="always" />
    <linearGradient
       inkscape:collect="always"
       xlink:href="#XMLID_18_-7"
       id="linearGradient1281"
       gradientUnits="userSpaceOnUse"
       x1="194.895"
       y1="153.5576"
       x2="141.0276"
       y2="117.4093" />
    <linearGradient
       inkscape:collect="always"
       xlink:href="#XMLID_19_-4"
       id="linearGradient1283"
       gradientUnits="userSpaceOnUse"
       x1="151.79539"
       y1="217.7852"
       x2="97.929703"
       y2="181.638" />
    <linearGradient
       inkscape:collect="always"
       xlink:href="#XMLID_20_-9"
       id="linearGradient1285"
       gradientUnits="userSpaceOnUse"
       x1="38.696301"
       y1="127.3906"
       x2="47.046902"
       y2="181.66141" />
    <linearGradient
       inkscape:collect="always"
       xlink:href="#XMLID_21_-3"
       id="linearGradient1287"
       gradientUnits="userSpaceOnUse"
       x1="96.132797"
       y1="76.715302"
       x2="99.209602"
       y2="132.1021" />
    <linearGradient
       inkscape:collect="always"
       xlink:href="#XMLID_22_-7"
       id="linearGradient1289"
       gradientUnits="userSpaceOnUse"
       x1="147.103"
       y1="25.521"
       x2="156.3141"
       y2="65.216202" />
    <linearGradient
       inkscape:collect="always"
       xlink:href="#XMLID_23_-9"
       id="linearGradient1291"
       gradientUnits="userSpaceOnUse"
       x1="118.9761"
       y1="11.5415"
       x2="158.66859"
       y2="-8.3048" />
    <linearGradient
       inkscape:collect="always"
       xlink:href="#XMLID_24_-3"
       id="linearGradient1293"
       gradientUnits="userSpaceOnUse"
       x1="3.9033"
       y1="113.5547"
       x2="7.1701999"
       y2="146.2628" />
    <linearGradient
       inkscape:collect="always"
       xlink:href="#XMLID_25_-9"
       id="linearGradient1295"
       gradientUnits="userSpaceOnUse"
       x1="-18.5557"
       y1="155.10451"
       x2="135.0152"
       y2="-2.8092999" />
    <linearGradient
       inkscape:collect="always"
       xlink:href="#XMLID_26_-2"
       id="linearGradient1297"
       gradientUnits="userSpaceOnUse"
       x1="99.074699"
       y1="171.0332"
       x2="52.817699"
       y2="159.61659" />
    <linearGradient
       inkscape:collect="always"
       xlink:href="#XMLID_27_-1"
       id="linearGradient1299"
       gradientUnits="userSpaceOnUse"
       x1="178.52589"
       y1="115.5146"
       x2="137.43269"
       y2="78.683998" />
    <linearGradient
       inkscape:collect="always"
       xlink:href="#XMLID_28_-1"
       id="linearGradient1301"
       gradientUnits="userSpaceOnUse"
       x1="193.6235"
       y1="47.937"
       x2="173.15421"
       y2="26.053801" />
    <radialGradient
       inkscape:collect="always"
       xlink:href="#XMLID_29_-4"
       id="radialGradient1303"
       gradientUnits="userSpaceOnUse"
       cx="143.8315"
       cy="79.388199"
       r="50.357601" />
    <radialGradient
       inkscape:collect="always"
       xlink:href="#XMLID_30_-6"
       id="radialGradient1305"
       gradientUnits="userSpaceOnUse"
       cx="74.0923"
       cy="145.75101"
       r="66.943703" />
    <linearGradient
       inkscape:collect="always"
       xlink:href="#XMLID_31_-6"
       id="linearGradient1307"
       gradientUnits="userSpaceOnUse"
       x1="26.669901"
       y1="197.33591"
       x2="9.9886999"
       y2="140.742" />
    <linearGradient
       inkscape:collect="always"
       xlink:href="#XMLID_32_-0"
       id="linearGradient1309"
       gradientUnits="userSpaceOnUse"
       x1="154.6411"
       y1="9.7979002"
       x2="192.039"
       y2="26.305901" />
    <filter
       inkscape:menu="Shadows and Glows"
       inkscape:menu-tooltip="Cut out, add inner shadow and colorize some parts of an image"
       style="color-interpolation-filters:sRGB;"
       inkscape:label="Drop Shadow"
       id="filter1366">
      <feColorMatrix
         values="0 0 0 0 0 0 0 0 0 0 0 0 0 0 0 0.21 0.72 0.07 0 0 "
         result="result1"
         id="feColorMatrix1338" />
      <feColorMatrix
         values="1 0 0 0 0 0 1 0 0 0 0 0 1 0 0 0 0 0 2 0 "
         result="result9"
         id="feColorMatrix1340" />
      <feComposite
         in2="result9"
         in="SourceGraphic"
         operator="in"
         result="result4"
         id="feComposite1342" />
      <feFlood
         result="result2"
         flood-color="rgb(0,0,0)"
         id="feFlood1344" />
      <feComposite
         in2="result9"
         operator="in"
         result="result10"
         id="feComposite1346" />
      <feComposite
         in2="result4"
         operator="atop"
         id="feComposite1348" />
      <feGaussianBlur
         stdDeviation="3"
         result="result8"
         id="feGaussianBlur1350" />
      <feOffset
         dx="3"
         dy="3"
         result="result3"
         in="result8"
         id="feOffset1352" />
      <feFlood
         flood-opacity="1"
         flood-color="rgb(219,173,62)"
         result="result5"
         id="feFlood1354" />
      <feMerge
         result="result6"
         id="feMerge1362">
        <feMergeNode
           in="result5"
           id="feMergeNode1356" />
        <feMergeNode
           in="result3"
           id="feMergeNode1358" />
        <feMergeNode
           in="result4"
           id="feMergeNode1360" />
      </feMerge>
      <feComposite
         in2="SourceGraphic"
         operator="in"
         result="fbSourceGraphic"
         id="feComposite1364" />
      <feColorMatrix
         result="fbSourceGraphicAlpha"
         in="fbSourceGraphic"
         values="0 0 0 -1 0 0 0 0 -1 0 0 0 0 -1 0 0 0 0 1 0"
         id="feColorMatrix1380" />
      <feFlood
         id="feFlood1382"
         flood-opacity="1"
         flood-color="rgb(255,255,255)"
         result="flood"
         in="fbSourceGraphic" />
      <feComposite
         in2="fbSourceGraphic"
         id="feComposite1384"
         in="flood"
         operator="in"
         result="composite1" />
      <feGaussianBlur
         id="feGaussianBlur1386"
         in="composite1"
         stdDeviation="13.8138"
         result="blur" />
      <feOffset
         id="feOffset1388"
         dx="0"
         dy="0"
         result="offset" />
      <feComposite
         in2="offset"
         id="feComposite1390"
         in="fbSourceGraphic"
         operator="over"
         result="composite2" />
    </filter>
  </defs>
  <sodipodi:namedview
     id="base"
     pagecolor="#ffffff"
     bordercolor="#666666"
     borderopacity="1.0"
     inkscape:pageopacity="0.0"
     inkscape:pageshadow="2"
     inkscape:zoom="0.98994949"
     inkscape:cx="519.11916"
     inkscape:cy="733.7994"
     inkscape:document-units="mm"
     inkscape:current-layer="layer6"
     inkscape:document-rotation="0"
     showgrid="false"
     inkscape:window-width="1920"
     inkscape:window-height="1027"
     inkscape:window-x="1200"
     inkscape:window-y="25"
     inkscape:window-maximized="1"
     inkscape:lockguides="true"
     inkscape:snap-text-baseline="true" />
  <metadata
     id="metadata5">
    <rdf:RDF>
      <cc:Work
         rdf:about="">
        <dc:format>image/svg+xml</dc:format>
        <dc:type
           rdf:resource="http://purl.org/dc/dcmitype/StillImage" />
        <dc:title />
      </cc:Work>
    </rdf:RDF>
  </metadata>
  <g
     inkscape:groupmode="layer"
     id="layer3"
     inkscape:label="background"
     sodipodi:insensitive="true">
    <rect
       style="fill:#25404d;fill-opacity:1;stroke-width:0.264583"
       id="rect1020"
       width="210"
       height="297"
       x="1.2434498e-14"
       y="1.2434498e-14"
       inkscape:label="background"
       sodipodi:insensitive="true" />
  </g>
  <g
     inkscape:groupmode="layer"
     id="layer5"
     inkscape:label="splatter">
    <path
       id="path2673"
       style="fill:#b11301;fill-opacity:1;stroke:none;stroke-width:0.0276427"
       d="m 19.282984,74.394312 c -0.06565,0.0069 -0.127692,0.03441 -0.169156,0.08968 -0.11057,0.08293 0.608104,0.719094 1.547956,1.382519 1.382134,0.967493 1.879479,1.188463 2.542904,1.050249 0.856923,-0.165856 4.83763,0.718643 6.440906,1.437354 0.497569,0.221142 0.99522,0.304131 1.133432,0.221203 0.138214,-0.08293 0.801348,0.02748 1.464772,0.248621 0.663425,0.221141 1.990173,0.552829 2.985309,0.746328 0.995138,0.165856 1.935331,0.415018 2.073546,0.525588 0.165856,0.110572 0.607965,0.27607 1.050248,0.38664 0.856924,0.193499 0.995212,0.60813 0.276504,0.801628 -0.746354,0.165855 1.713854,1.216678 3.372415,1.437819 0.773994,0.08293 2.26669,0.331401 3.317112,0.552543 1.078065,0.221142 3.538389,0.663701 5.473377,0.995412 4.94804,0.773995 10.282972,1.990274 11.333394,2.515487 0.497569,0.248782 4.533283,1.133089 7.10405,1.575373 0.691068,0.110569 1.548063,0.387182 1.935062,0.663608 0.386998,0.248785 1.437374,0.525154 2.349583,0.635726 0.912208,0.11057 1.962584,0.41436 2.349584,0.663144 0.856923,0.580496 2.542966,1.050837 5.279591,1.49312 1.133349,0.193498 2.239492,0.441972 2.405348,0.552541 0.939852,0.580495 4.89252,1.327009 7.518574,1.409936 2.460201,0.08293 3.289621,0.248611 5.528678,1.05025 1.437419,0.52521 3.510727,1.161151 4.561147,1.409936 2.37727,0.580496 3.26176,0.912236 4.75447,1.769157 l 1.18827,0.66361 -0.91177,1.077665 c -0.93985,1.105711 -2.0732,1.990451 -5.03097,3.980731 -0.91221,0.60813 -1.686453,1.35471 -1.74174,1.63113 -0.110569,0.46993 0.05528,0.49722 1.65855,0.38664 2.23907,-0.16585 3.48306,0.19362 4.45056,1.24404 0.85691,0.96749 0.91206,1.24379 0.35922,2.01778 -0.387,0.49757 -0.41435,0.49757 -0.60785,0 -0.11057,-0.27643 -0.0555,-0.7464 0.13802,-1.02283 0.33171,-0.55286 0.0551,-0.7183 -0.4424,-0.22074 -0.41465,0.41464 -2.29403,0.80154 -2.21111,0.46983 0.0276,-0.16586 -0.11066,-0.35949 -0.3318,-0.44241 -0.22114,-0.0829 -0.30435,-1.8e-4 -0.19378,0.19332 0.19349,0.30407 -0.1104,0.41496 -1.05025,0.30438 -0.80164,-0.0829 -2.377197,-1.18861 -2.238984,-1.60325 0.05529,-0.16586 0.02762,-0.3318 -0.1106,-0.3318 -0.138215,0 -0.304177,-0.24894 -0.387107,-0.55301 -0.08292,-0.30407 -0.33164,-0.55255 -0.580424,-0.55255 -0.248785,0 -0.912157,-0.30425 -1.492656,-0.6636 -0.552853,-0.387 -1.796597,-0.93997 -2.708803,-1.24404 -1.465063,-0.49757 -1.935446,-0.52529 -3.317579,-0.2765 -2.543127,0.44228 -3.482827,0.80163 -4.477963,1.65855 -0.497569,0.44229 -1.022639,0.80163 -1.160852,0.80163 -0.165856,0 -0.608415,0.71892 -0.995412,1.57584 -0.41464,0.88457 -0.828852,1.8243 -0.967067,2.07308 -0.331711,0.66343 -0.802061,3.81485 -0.691491,4.72705 0.05529,0.41465 0.332123,1.05034 0.63619,1.38206 0.718712,0.80164 1.824399,2.68139 1.603257,2.68139 -0.11057,0 0.524905,0.69125 1.409472,1.52053 0.884565,0.82928 1.548165,1.57563 1.465235,1.65856 -0.08293,0.0829 -0.607996,-0.3043 -1.160849,-0.82951 -0.552854,-0.52521 -1.18902,-0.96753 -1.382519,-0.96753 -0.221141,0 -0.469854,-0.19339 -0.580423,-0.41453 -0.08293,-0.22114 -0.386717,-0.41452 -0.663145,-0.41452 -0.276427,0 -0.940026,-0.49765 -1.465235,-1.13343 -0.49757,-0.60814 -1.381967,-1.38237 -1.907179,-1.68644 -0.52521,-0.30407 -1.327117,-1.05019 -1.797041,-1.68598 -0.469925,-0.63577 -1.216065,-1.24408 -1.741275,-1.40993 -0.497569,-0.16585 -0.995445,-0.44198 -1.106015,-0.60785 -0.110572,-0.16585 -0.46969,-0.41501 -0.829047,-0.52558 -0.359354,-0.11058 -1.105704,-0.58033 -1.658556,-1.05026 -0.552853,-0.49756 -0.912424,-0.71886 -0.774209,-0.553 0.276425,0.46993 -0.110517,0.44251 -0.635727,-0.0274 -0.497569,-0.46992 -4.560954,-1.93524 -7.214653,-2.59866 -1.24392,-0.33172 -2.349695,-0.88462 -3.593616,-1.82447 -0.995136,-0.71871 -1.852133,-1.4095 -1.93506,-1.52007 -0.08293,-0.13822 -0.469931,-0.38717 -0.856931,-0.60831 -3.455334,-1.8797 -5.500794,-3.980272 -5.500794,-5.694117 0,-0.856924 -0.663225,-2.156423 -1.796576,-3.566198 -0.552853,-0.691069 -3.372562,-1.87942 -5.583978,-2.321703 -1.35449,-0.304069 -5.335198,-2.321976 -6.440907,-3.317112 -1.133351,-0.995126 -1.824368,-1.575629 -4.008139,-3.372402 -3.123624,-2.57077 -3.814602,-3.123723 -4.699167,-3.704219 -0.442283,-0.276428 -1.437329,-1.105989 -2.183682,-1.852343 -1.409776,-1.382133 -1.907448,-1.52026 -2.045661,-0.525123 -0.05529,0.41464 0.138188,0.691119 0.746326,1.02283 0.469926,0.221142 0.967577,0.663461 1.133433,0.967532 0.165856,0.304068 0.718583,0.829377 1.216151,1.188732 2.2667,1.520348 4.533511,3.399915 5.418076,4.533264 0.52521,0.663424 1.409851,1.46509 1.93506,1.769158 1.382133,0.773995 5.33493,4.312206 6.302423,5.666698 0.469926,0.635782 1.409895,1.603184 2.100963,2.183681 0.691068,0.552854 1.271452,1.161122 1.271452,1.299334 0,0.497569 2.211366,3.427558 4.008139,5.334898 2.57077,2.70898 2.902429,3.64904 3.151211,9.12229 0.110572,2.43256 0.165889,4.86499 0.110603,5.3902 -0.05529,0.52521 -0.165918,2.76448 -0.221203,4.94825 -0.08293,3.4277 -0.165801,4.03594 -0.635725,4.56115 -0.304071,0.30407 -0.856574,1.05041 -1.243571,1.65855 -0.386998,0.5805 -0.995279,1.2162 -1.354635,1.38206 -0.773994,0.38699 -0.995243,1.57575 -0.387105,2.10096 0.525213,0.41464 0.580527,2.23888 0.110601,2.70881 -0.193498,0.19349 -0.663491,0.3318 -1.078132,0.3318 -0.635782,0 -1.741256,-0.96774 -5.860015,-5.05886 -2.791912,-2.76426 -5.583924,-5.74941 -6.219705,-6.60634 -0.635782,-0.85692 -1.29938,-1.65881 -1.465236,-1.74174 -0.165856,-0.11057 -0.497544,-0.52501 -0.746328,-0.93965 -0.635781,-1.05042 -1.934918,-2.68126 -3.095911,-3.89753 -0.525211,-0.55286 -1.46494,-1.60323 -2.073079,-2.34959 -1.13335,-1.40978 -6.689386,-7.24258 -7.850378,-8.26536 -0.359355,-0.33172 -0.912322,-0.82914 -1.244034,-1.16086 -1.603276,-1.60327 -3.206512,-2.90251 -3.206512,-2.62608 0,0.27642 0.745975,1.07796 1.989896,2.12838 0.193499,0.16586 0.691134,0.66326 1.078132,1.10555 0.41464,0.44228 2.432646,2.46027 4.505846,4.45055 2.045559,2.01791 4.036131,4.14631 4.423128,4.69916 0.580496,0.93985 2.377013,3.12385 4.090859,5.00355 0.331712,0.35936 0.746149,0.93999 0.939647,1.29934 0.165857,0.33171 0.857114,1.32653 1.520538,2.2111 2.349629,3.09598 2.239187,2.87513 3.814819,7.74023 0.663424,1.96264 1.547855,4.20167 2.017779,4.92038 l 0.856931,1.32675 -1.685976,1.57538 c -1.409776,1.32685 -1.769521,1.85229 -2.239446,3.34499 -0.331714,0.99514 -0.580425,2.01785 -0.580425,2.29428 0,0.27643 -0.08275,0.49771 -0.19332,0.49771 -0.138215,0 -0.248637,1.02272 -0.303923,2.29428 -0.02764,1.24393 -0.138274,2.81937 -0.221204,3.51044 -0.08292,0.69106 -0.165917,1.93528 -0.221201,2.76457 -0.05529,0.82928 -0.359316,2.12811 -0.691027,2.84682 -0.884566,2.04556 -0.663541,1.93541 0.414523,-0.16544 0.525211,-1.02278 1.133495,-1.93509 1.354636,-2.04566 0.552853,-0.1935 0.52497,-1.41006 -0.02789,-2.70927 -0.552853,-1.35449 -0.303961,-3.06815 0.387105,-2.7088 0.773996,0.35936 3.731906,0.27662 3.870121,-0.13802 0.05529,-0.16586 0.248442,-0.33181 0.441941,-0.33181 0.165856,0 0.801797,-0.38724 1.409935,-0.88481 1.133352,-0.93985 3.510859,-2.1558 4.201926,-2.1558 1.520346,0 3.897206,-3.15163 3.537852,-4.64433 -0.138215,-0.60814 0.193796,-0.38662 1.907643,1.32722 1.133349,1.13335 2.349674,2.57049 2.681388,3.17863 0.331711,0.60813 0.912095,1.49302 1.271451,1.96294 1.022779,1.3545 0.884473,3.0682 -0.331804,4.53326 -0.525212,0.63579 -0.967531,1.24385 -0.967531,1.38206 0,0.11057 -0.248473,0.27629 -0.552544,0.35922 -1.050422,0.27643 -0.940238,0.96765 0.27604,2.21156 0.691068,0.66343 1.631308,2.10063 2.239447,3.39984 l 1.077668,2.23945 -0.27604,2.18367 c -0.165855,1.18864 -0.359478,2.40473 -0.442404,2.65351 -0.248785,0.82929 -2.902501,1.82449 -5.086274,1.93506 -0.386998,0.0276 -0.829333,0.16593 -1.022831,0.27651 -0.386997,0.30407 -2.79205,1.3e-4 -3.013192,-0.35923 -0.193498,-0.35935 -1.133268,-0.30405 -1.382052,0.0553 -0.08293,0.16586 0.08281,0.66327 0.414521,1.10556 0.304071,0.41463 0.58089,0.96736 0.58089,1.21614 0,0.22114 0.193383,0.41452 0.414525,0.41452 0.469926,0 0.552659,-0.6911 0.138019,-0.96752 -0.691067,-0.44228 0.22108,-0.69103 2.294283,-0.69103 2.404913,0.0276 5.362927,-0.30402 5.915783,-0.63572 0.718708,-0.44228 1.382221,0.80199 1.99036,3.7874 0.525212,2.43255 0.580348,3.12325 0.30392,3.70375 -0.248781,0.60813 -0.248751,0.77428 0.110604,1.05071 0.248784,0.16586 0.44218,0.55262 0.469823,0.82905 0,0.27643 0.110408,0.77407 0.248621,1.07813 0.193498,0.41464 0.249084,0.19374 0.249084,-0.82904 0,-0.77401 0.08299,-2.07332 0.221204,-2.90259 0.248784,-1.71385 0.248561,-5.19683 0.02742,-8.34809 -0.193499,-2.4602 0.165881,-3.20644 1.769156,-3.78694 0.49757,-0.19349 1.133511,-0.47009 1.409936,-0.60831 0.248785,-0.13821 0.967236,-0.1661 1.575374,-0.0832 l 1.106016,0.19378 v 2.84729 c 0,3.86997 -0.608484,5.05835 -2.073546,4.09085 -0.580496,-0.38699 -0.718476,-0.38701 -0.829045,-0.0553 -0.08293,0.22114 -0.02784,0.74667 0.138018,1.16131 0.138214,0.41464 0.221172,0.88415 0.110602,1.02237 -0.08293,0.13821 0.05536,0.24908 0.276504,0.24908 0.248784,0 0.442405,0.11064 0.442405,0.2212 0,0.13822 0.414438,0.71862 0.939647,1.32675 0.525213,0.5805 1.32689,1.54812 1.824459,2.10097 0.718711,0.85692 0.967412,0.99489 1.382053,0.77375 0.276428,-0.16586 0.829395,-0.27651 1.244035,-0.27651 0.856923,0 1.382216,1.07802 1.133431,2.34958 -0.165855,0.80164 -1.050626,2.90283 -1.575836,3.73211 -0.138215,0.22114 -0.497336,0.91193 -0.829047,1.52007 -1.630917,3.23419 -2.349926,4.06358 -4.423127,5.41808 -0.995138,0.63578 -1.575201,0.80185 -2.625624,0.77421 -1.575631,-0.0276 -3.151674,-0.49783 -3.151674,-0.94012 0,-0.16585 0.387002,-1.02261 0.856928,-1.90718 0.469926,-0.85691 0.801611,-1.63115 0.746327,-1.68643 -0.05529,-0.0829 -0.469947,0.58065 -0.91223,1.40993 -0.442284,0.85693 -0.99501,1.63093 -1.21615,1.71386 -0.221141,0.0829 -0.663477,-0.16579 -1.022831,-0.58042 -0.359356,-0.41465 -0.746135,-0.74634 -0.884348,-0.74634 -0.138212,0 -0.470126,-0.24916 -0.718908,-0.52558 -0.276427,-0.30408 -0.663205,-0.46957 -0.884347,-0.38665 -0.525212,0.19351 -0.497762,-0.19377 0.138019,-1.85234 0.414641,-1.07806 0.497691,-1.93489 0.442406,-3.84223 l -0.110601,-2.46018 1.658556,-1.68598 c 0.912209,-0.91221 1.520267,-1.68644 1.382054,-1.68644 -0.165857,0 -0.63561,0.38724 -1.05025,0.88481 -0.442283,0.49757 -1.077999,1.13306 -1.437352,1.46478 -1.769134,1.52034 -1.7142,1.40976 -1.271919,2.46018 0.525212,1.24392 0.525452,3.70436 0.02789,5.05885 -0.221141,0.5805 -0.469855,1.52 -0.580424,2.1005 -0.138216,0.93985 -0.414764,1.18896 -2.957891,2.87517 -2.128487,1.40977 -3.040585,1.85212 -3.786939,1.87976 -0.856923,0 -0.995202,0.0826 -1.078132,0.71845 -0.138212,1.24392 0.635933,1.16117 2.211564,-0.19333 1.686204,-1.46506 3.759357,-2.73684 4.008142,-2.48806 0.08293,0.0829 0.02737,0.46993 -0.138484,0.85693 -0.221142,0.44228 -0.220918,0.69102 -0.02742,0.69102 0.138212,0 0.442002,-0.41466 0.663144,-0.91223 0.552853,-1.35449 1.022836,-1.65844 1.879759,-1.27144 0.801637,0.35935 1.133315,0.96756 1.547955,2.79198 0.359355,1.49271 1.907317,3.89772 2.404884,3.70422 0.193499,-0.0829 1.10581,-0.27632 2.045663,-0.46983 1.022779,-0.19349 2.239197,-0.69116 3.013191,-1.18873 0.691068,-0.46992 1.907393,-1.07821 2.681388,-1.35463 1.354492,-0.46993 1.409823,-0.46968 2.681387,0.0832 0.746353,0.33171 1.60338,0.99511 2.045663,1.60326 0.41464,0.55285 0.829076,1.07792 0.939648,1.16085 0.884566,0.77399 -0.02763,4.20177 -1.658556,6.1644 -2.100845,2.54313 -4.671536,4.09104 -6.413026,3.89754 -0.52521,-0.0553 -1.603246,-0.13827 -2.404884,-0.2212 -1.65856,-0.11058 -2.101162,-0.41468 -2.819871,-1.82446 -0.691068,-1.35449 -1.989948,-1.93513 -3.012727,-1.35464 -0.856924,0.49758 -1.050577,1.18876 -0.553008,2.10097 0.552853,1.02278 -0.138403,1.29913 -1.520538,0.58042 -1.35449,-0.69107 -5.583635,-4.20145 -6.025919,-5.00309 -0.497567,-0.93985 -3.261936,-4.45038 -3.704218,-4.69916 -0.1935,-0.11058 -0.387105,-0.38739 -0.387105,-0.5809 0,-0.38699 -1.768802,-2.10049 -2.1558,-2.10049 -0.41464,0 -0.801899,0.44233 -0.940111,1.02283 -0.193499,0.774 0.995509,2.15592 2.184147,2.59821 0.82928,0.27642 3.814569,3.6212 4.588564,5.08626 0.580498,1.161 4.007891,4.53356 4.781886,4.72706 0.359354,0.0829 1.023179,0.66306 1.437819,1.24356 0.442283,0.5805 1.105417,1.29942 1.464772,1.57584 1.160991,0.88456 4.395174,2.5429 4.97567,2.5429 0.304068,0 1.271697,0.35959 2.156263,0.82952 1.990272,0.99513 3.897566,0.94004 5.666695,-0.13802 1.824419,-1.13335 1.907594,-1.16129 3.400299,-1.90765 0.801637,-0.38699 1.630734,-0.71844 1.851876,-0.71844 0.248785,0 0.857069,-0.38723 1.354635,-0.82951 0.525212,-0.46992 1.022398,-0.82905 1.132968,-0.82905 0.08293,0 1.43756,-0.60851 3.013192,-1.32722 2.017917,-0.96749 3.123544,-1.68598 3.897539,-2.5429 0.912209,-1.02277 1.216427,-1.18874 2.211563,-1.18874 1.658563,-0.0276 4.035977,0.38719 3.870122,0.66361 -0.331711,0.55286 0.248789,0.19359 0.856928,-0.52512 l 0.635727,-0.74679 -0.553007,-0.52512 c -1.105709,-1.02279 -0.08266,-4.09101 1.797039,-5.4455 2.432558,-1.76913 5.500522,-0.47002 7.020869,2.98532 0.359355,0.80162 0.470063,1.90728 0.497705,4.80976 0,3.37241 0.05544,3.84239 0.553008,4.39524 0.442283,0.49757 0.718752,0.55321 1.82446,0.41499 1.18863,-0.16585 1.43705,-0.0832 2.84682,0.82905 1.63092,1.10571 2.37747,1.13337 2.37747,0.0553 0,-1.10571 -0.99522,-3.62097 -1.99036,-5.05839 -1.07807,-1.54799 -1.43723,-2.40523 -1.85188,-4.47843 -0.30406,-1.4927 -0.0829,-2.59827 0.96754,-4.53327 0.22114,-0.38699 0.38663,-0.9676 0.38663,-1.24402 0,-0.74636 0.77415,-1.74128 1.35464,-1.74128 0.27642,0 0.66343,-0.19385 0.85693,-0.41499 0.1935,-0.22114 0.69113,-0.41453 1.07813,-0.41453 0.41464,0 1.05034,-0.27635 1.38206,-0.58041 0.58048,-0.55286 0.63592,-0.80181 0.55299,-3.1238 -0.0829,-3.20655 0.16596,-4.42287 1.18874,-5.99851 1.18863,-1.76912 4.28461,-3.28923 6.68953,-3.28922 1.43742,0.0276 2.10057,0.85706 2.377,3.01319 0.11058,0.85692 0.22145,1.43732 0.24909,1.32675 0,-0.13821 0.35932,0.0277 0.74632,0.33181 0.74636,0.58049 1.43743,0.69095 2.51549,0.41452 0.35935,-0.11058 0.55251,-0.30423 0.44194,-0.55301 -0.0829,-0.27643 0.13818,-0.44197 0.69103,-0.55254 0.49757,-0.11057 0.8846,-0.38742 0.96753,-0.6915 0.19349,-0.69106 1.02283,-0.69106 1.02283,0 0,0.30408 -0.11065,0.63599 -0.27651,0.71892 -0.13821,0.0829 -0.27604,0.46993 -0.27604,0.85692 0,0.35936 -0.11065,0.66361 -0.2765,0.66361 -0.44228,0 -1.13337,1.96242 -0.91223,2.59821 0.11058,0.33171 0.16589,0.8017 0.1106,1.07813 -0.0276,0.27643 0.13786,0.80174 0.38664,1.18874 0.38701,0.58049 0.5255,0.63564 1.05071,0.35921 0.9675,-0.55284 4.14633,-3.04081 4.75448,-3.75952 0.74635,-0.9122 1.63084,-0.60801 1.38205,0.44241 -0.11057,0.387 -0.19356,0.71891 -0.2212,0.71891 -0.49757,0 -1.18832,0.82925 -1.35417,1.54796 -0.30407,1.4927 0.41425,2.4875 2.79152,3.81435 0.30407,0.1935 0.27664,0.35942 -0.0827,1.07813 -0.60814,1.161 -0.55283,2.87503 0.11059,4.03603 0.387,0.74635 0.55279,1.5754 0.58043,3.34453 0.0553,2.29434 0.0832,2.37727 0.77421,2.51549 0.387,0.0829 0.93949,0.24913 1.18827,0.41498 0.27643,0.13821 0.7743,0.24862 1.10601,0.24862 0.774,0.0276 1.4096,0.47007 1.85188,1.35464 0.27642,0.46993 0.41457,0.5527 0.58042,0.30392 0.16586,-0.24878 0.30445,-0.19366 0.52559,0.24862 0.30407,0.55286 0.35911,0.55313 0.77375,0.13848 0.44228,-0.41464 0.44228,-0.46991 0,-0.80162 -0.5805,-0.41465 -0.58027,-0.52545 -0.0274,-1.68644 0.52521,-1.10571 0.85679,-1.18871 1.21614,-0.27651 0.13821,0.387 0.49734,0.82956 0.82905,0.99541 0.52521,0.27643 0.55297,0.24868 0.3871,-0.3871 -0.0829,-0.41464 -0.0552,-0.71891 0.1106,-0.71891 0.38701,0 0.0554,-1.18835 -0.41451,-1.46477 -0.24879,-0.13821 -0.35945,-0.58081 -0.33181,-1.10602 0.0553,-0.49757 -0.0274,-1.71367 -0.13802,-2.7088 -0.1935,-1.54799 -0.13859,-1.99017 0.33134,-2.98531 1.32685,-2.73662 -0.0549,-7.51879 -3.12333,-10.80827 -1.02278,-1.07806 -1.52061,-1.90745 -1.79704,-2.90259 -0.1935,-0.774 -0.52519,-1.57567 -0.74633,-1.82446 -0.1935,-0.24878 -0.5805,-1.07788 -0.85693,-1.85188 -0.60813,-1.6862 -2.21128,-3.64885 -6.19182,-7.60176 -2.37727,-2.32198 -3.1788,-2.95788 -3.78694,-2.95788 -1.16099,0 -1.79689,-0.88463 -3.75952,-5.25218 -0.88456,-1.99027 -2.70909,-4.22922 -3.75951,-4.64387 -0.52521,-0.22114 -4.42253,-3.73173 -6.44045,-5.77729 -1.63092,-1.65856 -3.67679,-3.17885 -5.33535,-3.95284 -0.66342,-0.30407 -1.18873,-0.66366 -1.18873,-0.82951 0,-0.13822 -0.19339,-0.27651 -0.41453,-0.27651 -0.22114,0 -0.66346,-0.5525 -0.96753,-1.24357 -0.52521,-1.13335 -2.76425,-3.73209 -3.26181,-3.73209 -0.11058,0 -1.216268,-0.96717 -2.460188,-2.1558 -2.294343,-2.18378 -3.482712,-3.20681 -4.892487,-4.25723 -0.442283,-0.33171 -1.13354,-1.10549 -1.520536,-1.74128 -1.630921,-2.59841 -3.648726,-4.22936 -6.302423,-5.14157 -0.884566,-0.27643 -1.934943,-0.77406 -2.349583,-1.07813 -0.414643,-0.30407 -0.856976,-0.55301 -1.022832,-0.55301 -0.331714,0 -3.123678,-2.90211 -3.538318,-3.70375 -0.193498,-0.35936 -0.553067,-1.27165 -0.774208,-1.99036 -0.248785,-0.74635 -0.552575,-1.60357 -0.663145,-1.90764 -0.138214,-0.30407 -0.359268,-1.27148 -0.525123,-2.18369 -0.580499,-2.95776 -0.221463,-2.87476 3.869655,1.13344 1.796773,1.79677 3.427986,3.2897 3.566199,3.34499 0.138213,0.0553 0.24862,0.24844 0.24862,0.44194 0,0.69107 6.412892,6.57928 6.772247,6.19229 0.05529,-0.0553 -0.02745,-0.63615 -0.13802,-1.32722 -0.442281,-2.18377 -0.35944,-2.59829 0.525125,-2.93001 0.635781,-0.24878 0.995419,-0.22132 1.852342,0.19332 0.608139,0.27643 1.216196,0.49795 1.382054,0.52559 0.331712,0 1.464772,1.13306 1.46477,1.46477 0,0.44229 1.133734,1.60346 1.382519,1.46524 0.138214,-0.11057 0.801347,6e-5 1.464771,0.2212 0.663425,0.1935 1.824441,0.52495 2.570791,0.71845 0.77399,0.19349 1.93502,0.63582 2.62608,0.96753 0.69107,0.33171 1.74145,0.77404 2.34958,0.96753 1.43743,0.46993 4.92031,2.12839 8.01629,3.84223 2.15613,1.161 2.48807,1.46541 2.48807,2.07355 -0.0276,0.44228 0.0827,0.6078 0.24861,0.44194 0.24879,-0.24878 1.27192,0.80179 1.27192,1.35464 0,0.16585 0.19316,0.30392 0.44194,0.30392 0.24879,0 0.6637,0.55298 0.99542,1.29933 0.30407,0.74635 0.71849,1.40997 0.88434,1.52054 0.1935,0.13821 0.16607,0.22121 -0.0827,0.22121 -0.33172,0 -1.18871,-0.35966 -4.45055,-1.90765 -1.548,-0.71871 -2.26667,-1.18838 -2.40489,-1.57537 -0.0829,-0.22114 -0.3042,-0.38711 -0.4977,-0.38711 -0.1935,0 -0.41454,-0.11063 -0.46982,-0.2212 -0.13822,-0.33171 -2.40516,-2.10069 -2.54337,-1.96248 -0.0553,0.0553 0.88468,0.96736 2.10096,2.01778 2.40492,2.04556 2.40489,2.073 1.60326,4.31207 -0.60814,1.65855 -1.0504,2.34983 -1.60326,2.43276 -0.85692,0.13821 -6.27498,-3.59335 -8.67989,-5.97062 -0.11057,-0.11057 -0.85692,-0.85716 -1.65856,-1.68644 -3.64883,-3.67648 -4.616266,-4.5611 -4.809764,-4.39525 -0.165856,0.16586 1.105624,1.57595 5.556104,6.13699 1.38212,1.40978 2.73659,3.20652 2.40487,3.20652 -0.11056,0 -0.7737,-0.38701 -1.46477,-0.85694 l -1.21615,-0.85692 1.10555,0.99494 c 0.60814,0.55286 1.74125,1.4375 2.48761,1.93507 1.71384,1.13335 4.0086,3.4274 4.0086,3.98026 0,0.11056 0.46975,0.49756 1.05025,0.85692 0.99514,0.63579 3.37242,3.31749 3.37242,3.8427 0,0.30407 2.07318,1.9899 2.46017,1.9899 0.13822,0 0.52522,0.35959 0.85694,0.82951 0.49757,0.69107 0.52525,0.82905 0.1659,0.82905 -0.24879,0 -0.44241,0.11064 -0.44241,0.2765 0,0.13821 0.19339,0.2765 0.41453,0.2765 0.22114,0 0.69113,0.33192 1.07813,0.71891 0.44228,0.49757 0.77405,0.6631 1.02283,0.49724 0.69106,-0.41463 1.74149,-0.0829 2.51548,0.80163 0.41465,0.49757 0.74657,1.02312 0.77421,1.21662 0,0.55285 0.9674,0.93978 1.32675,0.58043 0.63579,-0.63579 0.30401,-1.46491 -1.07813,-2.76412 -1.02278,-0.96749 -1.63084,-1.32721 -2.23898,-1.32721 -0.9122,0 -2.9853,-0.96719 -2.9853,-1.40947 0,-0.1935 0.38657,-0.27671 0.96706,-0.19378 0.52521,0.0553 0.96753,0.0279 0.96753,-0.0827 0,-0.11056 0.38724,-0.30417 0.88481,-0.3871 0.49757,-0.11057 1.32691,-0.55289 1.87976,-0.96752 1.35449,-1.07807 2.10083,-1.27128 2.46019,-0.60785 0.33171,0.60813 0.24849,1.32641 -0.19379,1.76869 -0.5805,0.5805 -0.35938,1.02292 0.74633,1.35464 1.38213,0.41463 2.87497,0.13848 3.81482,-0.71845 0.74635,-0.69106 0.77406,-0.69137 0.2212,-1.10602 -0.30407,-0.24877 -0.9951,-0.55281 -1.54795,-0.69101 -1.74149,-0.46994 -2.70902,-2.2667 -1.76916,-3.31712 0.66342,-0.74635 0.99504,-0.58041 3.84223,1.99036 0.60814,0.58049 1.24407,1.05025 1.35464,1.05025 0.1935,0 2.12854,1.52065 3.53832,2.76457 0.24878,0.22114 1.46488,1.16063 2.7088,2.04519 1.24393,0.91222 2.68131,2.10089 3.20652,2.68139 0.88456,0.99514 0.91242,1.10576 0.77421,2.68139 -0.13822,1.46507 -0.0556,1.82452 0.55254,2.90259 0.41464,0.66343 1.05059,1.43743 1.46524,1.71386 1.05042,0.69106 3.09606,0.44237 4.50585,-0.52512 1.93498,-1.35449 3.483,-0.35942 3.483,2.29428 0.0276,0.85692 0.22104,1.93473 0.46983,2.4323 0.44229,0.88457 0.44249,0.91223 -0.0827,0.91223 -0.46992,0 -0.77437,-0.11058 -2.18414,-0.85693 -0.22115,-0.11057 -1.16088,-0.60775 -2.07308,-1.07767 -0.91221,-0.46992 -2.23918,-1.24417 -2.95789,-1.74174 -0.71872,-0.46992 -2.01779,-1.32667 -2.87471,-1.85187 -0.85693,-0.52522 -2.04537,-1.35478 -2.6535,-1.85235 -0.60815,-0.49756 -1.2441,-0.82901 -1.46524,-0.71844 -0.24879,0.0829 -0.74647,-0.22112 -1.24404,-0.74633 -0.46992,-0.49757 -0.9399,-0.82948 -1.02283,-0.7189 -0.11057,0.11056 0.44238,0.82949 1.18874,1.63113 0.77399,0.774 1.74162,1.96242 2.15626,2.59821 0.44229,0.66342 0.96735,1.18873 1.16085,1.18873 0.1935,0 0.46985,0.16573 0.58043,0.35922 0.11056,0.16585 0.55312,0.49777 0.99541,0.71891 0.41464,0.22115 0.74632,0.55259 0.74632,0.71844 0,0.19351 0.46976,0.52543 1.05025,0.77421 0.55286,0.24879 1.65853,0.96724 2.40488,1.57538 1.46507,1.21628 3.75976,2.48798 5.44597,3.01319 0.55285,0.1935 1.16066,0.52543 1.35417,0.77421 0.1935,0.22114 0.60839,0.52493 0.94011,0.66314 3.45534,1.60328 4.39486,3.9808 1.35417,3.4003 -0.69107,-0.13822 -0.93989,-0.0831 -0.96753,0.19332 -0.13822,1.46507 0.52524,2.5986 1.76916,3.1791 l 0.88481,0.41452 -1.24404,-0.19332 c -0.69106,-0.0829 -1.35444,-0.27678 -1.49265,-0.41499 -0.16586,-0.13821 -0.49754,-0.24862 -0.74633,-0.24862 -1.13335,0 -3.70416,-1.40973 -4.33994,-2.34958 -0.5805,-0.93985 -1.49252,-1.27153 -1.85188,-0.69103 -0.41464,0.66342 1.0503,1.85174 3.73164,3.01273 5.88789,2.54312 6.275,2.73672 7.07663,3.70422 0.49757,0.60814 0.66313,1.07839 0.60784,2.01824 -0.0276,0.82928 0.11092,1.38191 0.415,1.68598 0.3317,0.33171 0.35893,0.60822 0.16543,1.13343 -0.41464,1.1057 -0.0826,1.90732 1.38252,3.26181 0.74635,0.69107 1.43714,1.52017 1.52007,1.85188 0.1935,0.80163 1.54794,2.101 2.34958,2.26686 0.33171,0.0553 1.05063,-0.0828 1.57584,-0.35922 0.93985,-0.44228 0.99525,-0.41486 1.24404,0.0274 0.16585,0.24878 0.66304,0.66345 1.13296,0.91223 1.13335,0.58049 1.41011,0.19347 1.21662,-1.76917 -0.13821,-1.43741 -0.11077,-1.46495 0.93965,-2.12838 0.74635,-0.46992 1.65841,-0.74657 2.81941,-0.8295 1.90733,-0.16586 3.40025,-0.74609 4.09132,-1.57538 0.41463,-0.49756 0.44207,-0.49756 1.74127,0 0.74636,0.27643 1.43763,0.66343 1.57584,0.85693 0.13822,0.22114 0.44251,0.30412 0.82951,0.16591 0.33171,-0.11058 1.32654,-0.0555 2.2111,0.13802 1.99028,0.41463 2.76457,0.11048 2.76457,-1.13344 0,-0.60814 -0.24882,-1.07807 -0.96753,-1.71386 -0.52521,-0.46992 -0.96753,-0.99476 -0.96753,-1.18826 0,-0.35936 0.60805,-0.66362 1.32675,-0.66362 0.24879,0 0.69088,-0.19338 0.99495,-0.41452 0.49757,-0.35935 0.47024,-0.47008 -0.55254,-2.26686 -0.5805,-1.02278 -1.54835,-2.98521 -2.12885,-4.31206 -0.93984,-2.18378 -1.79659,-3.48317 -4.36736,-6.55151 -0.44228,-0.52521 -0.80163,-1.05028 -0.80163,-1.16085 0,-0.13822 -0.19338,-0.2212 -0.41452,-0.2212 -0.22114,0 -1.38213,-0.74635 -2.51549,-1.65856 -1.16099,-0.93985 -2.76432,-1.99024 -3.53831,-2.40489 -0.774,-0.38699 -1.76906,-0.96761 -2.23898,-1.29933 -1.40978,-1.02278 -6.68983,-4.31206 -6.93862,-4.31206 -0.11057,0 -0.46967,-0.2487 -0.77374,-0.52512 -0.33172,-0.27643 -1.43741,-0.96769 -2.46018,-1.52054 -1.05043,-0.55285 -2.32185,-1.35452 -2.81941,-1.76917 -0.52521,-0.41463 -1.74179,-1.16098 -2.70928,-1.65855 -0.99513,-0.49757 -2.15591,-1.32664 -2.5982,-1.79658 -1.63091,-1.79677 -3.20689,-3.01338 -3.7321,-2.87517 -0.30407,0.0829 -0.6081,-0.0275 -0.69103,-0.24862 -0.0829,-0.22114 -0.41462,-0.3871 -0.74632,-0.3871 -0.69107,0 -1.27146,-0.96739 -1.27146,-2.12838 0,-0.5805 -0.0552,-0.66329 -0.41452,-0.35922 -0.46993,0.38699 -0.55312,1.27129 -0.13848,1.52006 0.16585,0.0829 0.27651,0.3042 0.27651,0.44241 0,0.13822 -0.58041,-0.16581 -1.32676,-0.69102 -1.79678,-1.35449 -2.26685,-1.85224 -2.21157,-2.32216 0.11058,-0.52522 -0.52493,-0.7462 -0.66314,-0.24863 -0.0553,0.27642 -0.77394,-0.13813 -2.29429,-1.38205 -1.21627,-0.96749 -2.8475,-2.12875 -3.62149,-2.59867 -0.774,-0.44228 -1.96266,-1.29904 -2.62609,-1.90718 -0.99514,-0.88457 -1.10542,-1.0779 -0.66314,-1.10555 1.2992,-0.0276 2.51514,-0.58087 2.95742,-1.32722 0.71871,-1.18863 0.66342,-4.61628 -0.0553,-6.52362 -0.13821,-0.41464 -0.24838,-0.82908 -0.22074,-0.93965 0.13822,-0.80163 -2.10103,-3.89777 -4.03602,-5.58398 -1.32685,-1.16099 -3.04052,-2.2111 -3.56573,-2.2111 -0.27643,0 -1.13366,-0.22152 -1.96294,-0.52559 -1.32685,-0.46992 -1.57567,-0.46996 -2.6261,-0.1106 -1.16098,0.387 -1.16078,0.3874 -4.25676,-1.07767 -1.71384,-0.77399 -3.39993,-1.65885 -3.78693,-1.90763 -0.387,-0.2488 -1.43738,-0.85683 -2.34958,-1.32676 -0.91222,-0.46993 -1.9075,-1.02266 -2.21157,-1.21615 -0.30407,-0.16585 -0.58042,-0.33181 -0.58042,-0.33181 -0.0276,0 -0.13852,-0.38724 -0.24909,-0.88481 -0.16586,-0.88456 -0.16586,-0.88432 0.80163,-0.77374 1.02278,0.13822 1.6862,-0.35929 0.80163,-0.58043 -0.30407,-0.0829 -0.71829,-0.58056 -0.96707,-1.07813 l -0.41499,-0.94011 1.35464,-1.46478 c 0.74635,-0.80163 1.43739,-1.46501 1.54795,-1.49264 0.55286,-0.0553 1.16085,-0.4978 1.16085,-0.82952 0,-0.22114 0.19385,-0.3871 0.41499,-0.3871 0.49757,0 0.55265,-0.82929 0.0827,-0.85693 -0.19349,-0.0276 -0.77412,2.4e-4 -1.29933,0.0279 l -0.93965,0.0553 0.99496,-1.35463 0.99541,-1.35418 -1.38205,0.0274 c -0.74636,0.0276 -1.35464,-0.0553 -1.35464,-0.1659 0,-0.27643 0.69086,-0.80154 1.74128,-1.32675 0.82928,-0.41464 0.94021,-0.41483 2.12885,0.13802 0.69106,0.33171 1.90693,0.8017 2.73621,1.07813 0.91221,0.30407 1.52033,0.6637 1.60326,0.99541 0.13821,0.46993 1.18873,0.63561 1.18873,0.19332 0,-0.71871 1.96273,0.41454 3.70422,2.12838 0.1935,0.22114 1.40983,0.91242 2.68139,1.57584 3.20655,1.63092 3.20648,1.63094 3.09591,5.08628 -0.11057,3.12362 -0.0274,3.39988 1.52054,5.27959 0.63578,0.82927 1.21634,1.21642 1.87976,1.35463 0.52521,0.0829 1.02261,0.27631 1.10555,0.41453 0.0829,0.1382 0.71864,0.24862 1.43735,0.24862 1.82441,0 3.12344,-1.10536 4.36736,-3.75906 0.52521,-1.10571 0.94012,-2.2393 0.94012,-2.54337 0,-0.27643 0.52508,-0.85707 1.21615,-1.35463 0.7187,-0.49757 1.52021,-1.43714 2.01777,-2.3217 0.44228,-0.82928 1.07823,-1.96264 1.40994,-2.51549 0.63578,-1.13335 0.85682,-4.17429 0.46982,-6.71741 -0.35935,-2.37727 -3.04062,-7.905516 -4.75446,-9.812861 -1.24392,-1.382133 -3.5657,-3.040611 -4.25676,-3.040611 -0.9675,0 -4.36786,-2.930362 -7.79555,-6.717409 -0.93985,-1.050423 -2.26636,-2.294182 -2.95742,-2.764108 -0.69107,-0.469923 -1.8521,-1.354818 -2.62609,-2.018243 -0.74635,-0.635782 -2.23905,-1.741475 -3.31711,-2.460184 -2.21142,-1.492706 -3.09638,-1.548053 -4.75493,-0.221204 -0.52521,0.41464 -1.21601,0.912516 -1.52008,1.106016 -0.5805,0.331711 -2.9853,2.819483 -2.9853,3.09591 0,0.11057 -0.27638,0.469931 -0.63573,0.856929 -1.05043,1.160991 -1.76948,2.294332 -2.07355,3.317114 -1.02278,3.455334 -1.74135,4.422832 -3.67633,5.030971 -1.49271,0.469924 -2.10102,0.469909 -5.639281,-0.05531 -2.957768,-0.41464 -4.367532,-0.497643 -4.975671,-0.276501 -0.30407,0.11057 -0.967219,0.08315 -1.520072,-0.02742 -0.525213,-0.11057 -2.017908,-0.276535 -3.317115,-0.387104 -1.299206,-0.08293 -3.344869,-0.359526 -4.561146,-0.608309 -1.216278,-0.248784 -2.764291,-0.46984 -3.427716,-0.525124 -0.663424,-0.02764 -1.65871,-0.248682 -2.211563,-0.469824 -1.271563,-0.525212 -3.233917,-1.022714 -5.694115,-1.437354 -1.962632,-0.331711 -4.782403,-1.078256 -5.805181,-1.520537 -0.304071,-0.138215 -1.133168,-0.221203 -1.851879,-0.221203 -1.216278,0 -3.980809,-0.746332 -5.971083,-1.603256 -0.497566,-0.221141 -1.464955,-0.387106 -2.12838,-0.387106 -1.078065,0 -1.244079,-0.08289 -1.409935,-0.691026 -0.193499,-0.801637 -0.801497,-0.911804 -1.160851,-0.220739 -0.248784,0.442283 -0.386861,0.442059 -2.017779,0.02742 -4.008188,-0.995138 -5.666806,-1.409742 -6.053802,-1.547955 -0.221142,-0.08293 -1.022582,-0.304209 -1.796577,-0.497707 -3.344764,-0.82928 -4.7824,-1.188585 -5.805181,-1.492656 -0.608139,-0.193498 -1.547868,-0.386894 -2.07308,-0.469824 C 37.468514,78.713615 36.86047,78.519987 36.666971,78.354131 36.445829,78.188276 35.699483,77.966996 35.008415,77.856424 32.769357,77.524712 28.788403,76.474683 27.682696,75.921828 27.074557,75.645403 26.301,75.39624 25.914002,75.39624 c -0.359354,0 -0.912546,-0.137825 -1.216616,-0.27604 -0.276426,-0.165856 -1.547827,-0.359702 -2.764106,-0.414987 -1.24392,-0.08293 -2.349613,-0.193575 -2.460184,-0.276504 -0.05529,-0.02764 -0.124416,-0.04129 -0.190067,-0.03439 z m 75.931137,5.425046 c -0.138216,0 -0.276504,0.138065 -0.276504,0.303922 0,0.138213 0.138288,0.19353 0.276504,0.110601 0.165855,-0.08293 0.276037,-0.220994 0.276037,-0.30392 0,-0.05529 -0.110182,-0.110603 -0.276037,-0.110603 z m 8.403389,2.764107 c -0.0553,0 -0.1106,0.110648 -0.1106,0.276504 0,0.138212 0.13806,0.276504 0.30392,0.276504 0.1382,0 0.19353,-0.138292 0.1106,-0.276504 -0.0829,-0.165856 -0.221,-0.276504 -0.30392,-0.276504 z m -40.422506,8.399203 c -0.02772,0.0014 -0.04387,0.0206 -0.04647,0.05949 0,0.469925 0.829123,2.045662 1.105549,2.045662 0.248784,0 0.6081,0.912205 0.691027,1.658556 0.02764,0.221142 0.470202,1.105779 0.995411,1.93506 0.525213,0.82928 1.050282,1.741577 1.160852,1.990362 0.08293,0.276425 0.303968,0.497241 0.469823,0.497241 0.138213,0 0.276504,0.165948 0.276504,0.331804 0,0.691067 1.935174,2.791927 3.179095,3.427707 1.437419,0.774 1.520036,0.66326 0.552541,-0.6083 -0.386997,-0.49757 -0.691025,-1.07773 -0.691025,-1.29887 0,-0.22114 -0.248939,-0.71902 -0.553007,-1.106013 -0.304071,-0.386998 -0.552544,-0.801435 -0.552544,-0.939648 -0.02764,-0.386998 -1.216289,-1.630961 -1.713856,-1.824459 -0.276427,-0.11057 -0.497708,-0.41484 -0.497708,-0.718909 0,-0.30407 -0.387002,-0.856556 -0.856927,-1.188268 -0.469931,-0.35936 -1.078212,-1.078049 -1.354639,-1.603259 -0.551126,-1.052151 -1.896578,-2.672317 -2.16463,-2.658153 z m -52.485955,6.546395 c -0.0622,-0.01165 -0.08179,0.05081 -0.08179,0.175198 0,0.138212 0.359569,0.469899 0.77421,0.746327 l 0.746327,0.525124 -0.663609,-0.718908 C 11.034995,97.773056 10.812709,97.5485 10.709049,97.529063 Z M 46.78417,97.78698 c 0.138213,0 0.829244,0.442319 1.547956,0.967528 0.691065,0.552856 1.271451,1.078163 1.271451,1.188735 0,0.414637 2.847265,3.399937 3.593616,3.786937 0.442284,0.22114 1.852005,1.43747 3.151212,2.68139 l 2.377002,2.23898 v 1.76915 c 0,0.93986 -0.110408,2.26682 -0.248622,2.9026 -0.165856,0.66342 -0.38715,1.90742 -0.553005,2.79198 -0.165858,0.88457 -0.524978,1.93473 -0.829048,2.37701 -0.580495,0.80163 -0.580767,0.85716 -0.138484,4.20193 0.138213,0.96749 0.05543,1.35427 -0.303921,1.74127 -0.276427,0.24878 -0.607891,0.41451 -0.773746,0.35922 -0.691066,-0.22114 -1.244321,-3.64863 -1.437819,-8.4861 -0.193499,-5.72203 -0.718645,-9.53669 -1.437353,-10.75297 -0.248785,-0.387 -1.077882,-1.35461 -1.851876,-2.10096 -2.902484,-2.8472 -5.05843,-5.6667 -4.367363,-5.6667 z m -33.034511,2.2348 c -0.0622,10e-4 -0.08179,0.0803 -0.08179,0.22538 0,0.13822 0.331927,0.47013 0.77421,0.71891 l 0.746328,0.49725 -0.663609,-0.74633 c -0.449194,-0.48375 -0.67148,-0.69737 -0.775139,-0.69521 z m 52.766643,0.54278 c -0.209514,0.0152 -0.39631,0.14755 -0.493061,0.40151 -0.221141,0.55286 0.359407,1.24357 1.022832,1.24357 0.580496,0 0.663261,-0.33133 0.24862,-1.13296 -0.202137,-0.35763 -0.509018,-0.53167 -0.778391,-0.51212 z m 42.677278,0.73471 c 0.13865,-0.009 0.2909,0.0258 0.44985,0.10874 0.27642,0.13822 0.4977,0.44223 0.4977,0.63573 0,0.387 -2.29432,1.93536 -3.26182,2.18415 -0.5252,0.13821 -0.63593,0.0552 -0.553,-0.44241 0.0553,-0.44228 0.24899,-0.58065 0.71891,-0.55301 0.33172,0.0553 0.60785,-0.0554 0.60785,-0.2212 0,-0.16585 0.19338,-0.24859 0.41452,-0.13802 0.30407,0.11057 0.41498,-0.0275 0.41498,-0.46982 0,-0.66343 0.29508,-1.07824 0.71101,-1.10416 z m -66.88784,1.18688 c -0.08293,0 -0.220994,0.11064 -0.30392,0.2765 -0.08293,0.13821 -0.02761,0.2765 0.1106,0.2765 0.165856,0 0.303921,-0.13829 0.303921,-0.2765 0,-0.16586 -0.05531,-0.2765 -0.110601,-0.2765 z m 50.088509,4.56114 0.691025,0.74633 c 0.359357,0.44228 0.746359,0.77421 0.856929,0.77421 0.110571,0 0.110812,-0.11064 0.02789,-0.27651 -0.08292,-0.16585 0.02748,-0.19353 0.248621,-0.1106 0.248785,0.0829 0.442407,0.3314 0.442407,0.55255 0,0.22114 0.138065,0.3871 0.303921,0.3871 0.138214,0 0.193529,-0.13829 0.110602,-0.2765 -0.08293,-0.16586 -0.08269,-0.41457 0.02788,-0.58042 0.08293,-0.16586 0.386959,0.0552 0.691027,0.58042 0.525213,0.82928 0.497329,1.38252 -0.02789,1.38252 -0.138213,0 -0.580307,0.30402 -0.994948,0.69103 -0.41464,0.38699 -0.91205,0.69102 -1.105548,0.69102 -0.276428,0 -0.387345,0.38685 -0.414988,1.16085 -0.05529,1.96263 -0.08292,2.01779 -0.801628,2.01779 -0.552855,0 -0.691011,-0.13817 -0.635727,-0.63574 0.05529,-0.49756 -0.05524,-0.60808 -0.691025,-0.63572 -0.663425,0 -0.69089,-0.0277 -0.19332,-0.27651 0.41464,-0.19349 0.276288,-0.22116 -0.497707,-0.1106 -0.82928,0.13822 -1.077939,0.0557 -1.216152,-0.33134 -0.110569,-0.24878 -0.663536,-0.94026 -1.244032,-1.49312 -0.939853,-0.88456 -1.41001,-1.93481 -0.829511,-1.90717 0.110569,0 0.801601,0.30403 1.547955,0.69102 1.824416,0.88457 2.460279,0.60801 1.133432,-0.4977 -1.160994,-0.93986 -0.967403,-1.57524 0.331804,-1.07767 0.746351,0.30407 1.547899,0.44215 2.18368,0.35922 0.165858,-0.0276 0.248832,-0.4149 0.165903,-0.94011 z m 13.375801,2.54662 c 0.14858,0.004 0.28002,0.0378 0.36294,0.10689 0.13822,0.13821 0.46991,0.24909 0.74632,0.24909 0.27643,0 0.49725,0.19338 0.49725,0.41452 0,0.52521 -0.30388,0.52521 -0.99495,0 -0.27643,-0.22114 -0.77406,-0.41452 -1.07813,-0.41452 l -0.553,-0.0279 0.553,-0.24862 c 0.15203,-0.0553 0.31799,-0.0829 0.46657,-0.0795 z m -12.767493,1.24032 c -0.387,0 -0.525305,0.0556 -0.331804,0.13848 0.165856,0.0553 0.497527,0.0553 0.691025,0 0.165856,-0.0829 0.02778,-0.13848 -0.359221,-0.13848 z m -59.570026,0.49771 c -0.248783,0 -0.414507,0.13806 -0.359221,0.30392 0.05529,0.16586 0.221008,0.2765 0.359221,0.2765 0.138214,0 0.303937,-0.11064 0.359223,-0.2765 0.05529,-0.16586 -0.110438,-0.30392 -0.359223,-0.30392 z m 63.245895,0.4108 c 0.15458,-0.0182 0.321996,0.13147 0.664075,0.47354 0.497569,0.52521 0.580393,0.82928 0.469823,1.65856 -0.138212,0.82928 -0.304106,1.05052 -0.967531,1.18873 -0.442281,0.11057 -0.912036,0.11081 -1.050248,0.0279 -0.359354,-0.24878 -0.02774,-2.43269 0.469824,-3.01318 0.181404,-0.2056 0.29383,-0.3214 0.414057,-0.33553 z m -4.797218,0.96289 c -0.148204,-1.6e-4 -0.260706,0.0361 -0.260706,0.11896 0,0.0553 0.248473,0.16569 0.552544,0.24862 0.304068,0.0829 0.497676,0.0276 0.387104,-0.1106 -0.08638,-0.15549 -0.43194,-0.25671 -0.678942,-0.25698 z m 11.718642,0.0186 c 0.23151,0.0242 0.57051,0.15575 0.87458,0.37689 0.30408,0.22114 0.66319,0.33154 0.82905,0.24862 0.80164,-0.30407 1.40996,1.63079 0.66361,2.07307 -0.77399,0.46994 -1.27182,0.41478 -2.59867,-0.35922 -1.43742,-0.85692 -2.04551,-1.49244 -1.49266,-1.57537 0.22114,0 0.5254,-0.0556 0.66361,-0.0832 0.16586,-0.0553 0.44223,-0.0829 0.63573,-0.11061 0.1935,0 0.27625,-0.1657 0.19332,-0.30391 -0.12439,-0.20733 -8e-5,-0.29047 0.23143,-0.26629 z m -13.078391,3.32084 c 0.158946,0.0139 0.338716,0.1382 0.546036,0.37316 0.193499,0.27643 0.221399,0.58051 0.08318,0.85693 -0.221141,0.387 -0.304508,0.38697 -0.746792,-0.11061 -0.276428,-0.30406 -0.414493,-0.69129 -0.30392,-0.8295 0.124391,-0.20732 0.262546,-0.30381 0.421493,-0.28998 z m -7.055719,1.3681 c -0.221142,0 -0.414524,0.0553 -0.414524,0.11061 0,0.0553 0.193382,0.16593 0.414524,0.2765 0.221139,0.0829 0.414521,0.0276 0.414521,-0.1106 0,-0.16586 -0.193382,-0.27651 -0.414521,-0.27651 z m -43.115507,0.0172 c -0.221142,-0.0103 -0.435345,0.066 -0.532096,0.2319 -0.248785,0.41463 0.635594,0.99508 0.994948,0.63572 0.138215,-0.13821 0.19353,-0.41457 0.110603,-0.58043 -0.124393,-0.17967 -0.352313,-0.27682 -0.573455,-0.28719 z m 57.410508,0.8639 c 0.08638,-0.004 0.203486,0.10032 0.410806,0.30765 0.359355,0.35935 0.41491,0.52519 0.138485,0.80162 -0.248785,0.24878 -0.414585,0.24902 -0.635727,0.0279 -0.193499,-0.19349 -0.249054,-0.55284 -0.138484,-0.80163 0.08293,-0.22114 0.138536,-0.33206 0.22492,-0.33551 z m 1.095326,1.06977 c 0.315031,-0.0251 0.777322,0.0914 1.00192,0.316 0.469923,0.46993 0.414593,0.77375 -0.165903,0.77375 -0.52521,0 -1.160851,-0.49735 -1.160851,-0.88435 0,-0.12439 0.135816,-0.19034 0.324834,-0.2054 z m -11.360346,1.90904 c 0.108519,-0.0224 0.355005,0.0621 0.752367,0.28672 0.248784,0.13821 0.801752,0.38669 1.244034,0.55254 0.469927,0.16586 0.746328,0.47016 0.746328,0.82952 0,0.74635 -0.248766,0.69097 -1.603256,-0.33181 -0.950216,-0.72217 -1.378217,-1.28768 -1.139473,-1.33697 z m -35.247933,6.23085 c 0.01754,7.2e-4 0.03027,0.009 0.03718,0.0265 0.02764,0.13821 -0.02791,1.4926 -0.138484,2.9853 -0.138215,2.12849 -0.30379,2.7923 -0.663144,3.04108 -0.691068,0.41464 -0.774242,0.19341 -0.884812,-1.99036 -0.110572,-1.82441 -0.05531,-2.04573 0.746328,-3.12379 0.411183,-0.55631 0.780107,-0.94326 0.902935,-0.93872 z m -13.84888,0.40662 c 0.256558,-0.0155 0.893917,0.43557 1.889053,1.30631 2.819555,2.57077 6.357678,6.16399 6.191822,6.32984 -0.30407,0.33171 -3.344878,1.13341 -3.759518,1.02283 -0.746354,-0.22114 -2.487697,-2.54277 -2.819408,-3.75905 -0.165856,-0.63578 -0.608175,-1.93532 -0.967531,-2.87518 -0.359355,-0.93985 -0.663144,-1.76895 -0.663144,-1.85187 0,-0.11057 0.04321,-0.1677 0.128726,-0.17288 z m 21.819618,2.21854 c 1.188635,0 1.575287,0.11054 2.100497,0.69102 0.884567,0.9675 0.470248,1.24396 -1.354169,0.96754 -1.465062,-0.24878 -2.654118,-0.96766 -2.35005,-1.40994 0.08293,-0.13821 0.802085,-0.24862 1.603722,-0.24862 z m -32.200353,2.21946 c -0.134259,0.0114 -0.250867,0.13687 -0.335522,0.37874 -0.193498,0.46993 0.49759,1.10572 0.91223,0.85694 0.193498,-0.11058 0.193498,-0.33146 0,-0.71845 -0.202138,-0.35762 -0.404089,-0.53187 -0.576708,-0.51723 z m 26.789247,2.52478 c 0.691068,-0.004 1.33337,0.12067 2.148828,0.36945 0.746352,0.22114 1.658663,0.41452 2.045663,0.41452 1.022779,0 4.008477,1.57594 5.224755,2.76457 0.801638,0.80164 1.105356,1.32679 1.243568,2.29429 0.165856,1.13334 0.08313,1.46481 -0.939647,3.28923 -2.045558,3.59355 -2.875036,4.14636 -4.892951,3.20651 -1.243921,-0.5805 -2.40477,-1.65829 -5.334892,-4.89248 -0.82928,-0.91222 -2.294545,-2.48789 -3.234395,-3.48302 -1.934988,-1.99028 -2.183344,-2.81947 -0.967067,-3.04061 0.41464,-0.0829 1.437119,-0.33163 2.2664,-0.52513 1.008957,-0.26261 1.748671,-0.39387 2.439738,-0.39733 z m 64.34447,1.11764 c 0.16108,-0.0235 0.56019,0.21258 1.49313,0.77235 0.77399,0.44229 1.46526,0.82904 1.57584,0.82904 0.0829,0 0.71864,0.4149 1.43735,0.94011 0.69106,0.49757 2.18398,1.38221 3.28969,1.93507 1.07807,0.55285 1.9899,1.13323 1.9899,1.27145 0,0.16585 0.13853,0.2765 0.30439,0.2765 0.16585,0 0.46988,0.19338 0.69102,0.41452 0.24879,0.22115 0.74621,0.41453 1.16085,0.41453 0.49757,0 1.65857,0.69113 3.37241,1.93506 3.06835,2.23905 6.41303,4.8653 7.26996,5.69458 0.33171,0.30406 0.94,0.80146 1.35463,1.05024 1.13336,0.74635 2.51539,2.92991 2.12838,3.39984 -0.46992,0.55285 -1.24391,0.44266 -2.46018,-0.33134 -0.60814,-0.387 -1.21642,-0.69149 -1.35464,-0.69149 -0.13821,0 -0.38669,-0.19316 -0.60784,-0.44194 -0.1935,-0.22114 -1.21622,-0.91241 -2.29428,-1.52054 -2.70898,-1.54799 -4.69921,-2.76417 -4.86507,-2.98531 -0.0829,-0.11057 -0.33211,-0.33161 -0.58089,-0.46983 -0.63578,-0.3317 -3.39975,-2.73684 -4.78188,-4.14661 -0.91221,-0.91222 -1.29906,-1.13343 -1.96248,-1.07814 -0.44228,0.0553 -0.99525,-0.0277 -1.24404,-0.1659 -0.30407,-0.1935 -0.2487,-0.22093 0.2765,-0.0827 0.52522,0.13821 0.60778,0.0831 0.38664,-0.13802 -0.16585,-0.19351 -0.60817,-0.35947 -0.96752,-0.38711 -0.35936,-0.0553 -1.07803,-0.27658 -1.54796,-0.55301 -0.71871,-0.387 -0.91223,-0.66356 -0.91223,-1.29933 0,-0.63579 -0.11026,-0.82905 -0.55254,-0.82905 -0.35936,0 -0.55301,-0.19342 -0.55301,-0.52512 0,-0.27643 -0.19362,-0.60811 -0.4424,-0.69103 -0.24879,-0.11057 -0.38708,-0.24912 -0.27651,-0.35969 0.22114,-0.22114 -0.63561,-1.18826 -1.05025,-1.18826 -0.1935,0 -0.33157,-0.24895 -0.35922,-0.55301 -0.0242,-0.30235 -0.043,-0.47757 0.0823,-0.49585 z m -71.521479,0.51675 c 0.36972,0.0208 0.715132,0.14506 0.922452,0.3662 0.193498,0.22114 0.60816,0.71857 0.912228,1.16085 0.304071,0.41464 0.718973,0.93993 0.940115,1.13343 0.552852,0.55285 0.331644,0.63564 -1.078133,0.30392 -0.691067,-0.16585 -1.769344,-0.27626 -2.432766,-0.24862 -1.188637,0.0276 -2.017787,-0.24884 -2.874708,-1.02283 -0.469926,-0.38699 -0.469926,-0.4425 0,-0.7742 0.248783,-0.19351 0.85705,-0.38665 1.299333,-0.38665 0.469926,0 1.022893,-0.13829 1.244034,-0.2765 0.304069,-0.1935 0.697723,-0.27632 1.067445,-0.2556 z m -5.651364,2.04102 c 0.199223,0.007 0.319798,0.17 0.381994,0.48098 0.05529,0.27642 -0.220875,0.55305 -0.718445,0.7189 -0.442283,0.13822 -1.244186,0.66329 -1.797039,1.16085 -1.492705,1.29921 -1.243814,0.63596 0.387104,-1.05024 0.863833,-0.89839 1.414352,-1.32183 1.746386,-1.31049 z m 85.521393,5.95435 c 0.16586,0 0.44246,0.24894 0.60831,0.55301 0.16586,0.30407 0.24861,0.55254 0.19332,0.55254 -0.0553,0 -0.33142,-0.24847 -0.60785,-0.55254 -0.27641,-0.30407 -0.35963,-0.55301 -0.19378,-0.55301 z m -3.63962,9.39137 c -0.10107,-0.002 -0.17473,0.0346 -0.17473,0.11757 0,0.0553 0.19315,0.19357 0.44194,0.27651 0.22114,0.0829 0.33201,0.0552 0.24908,-0.11061 -0.10366,-0.17276 -0.34784,-0.28078 -0.51629,-0.28347 z m 7.17283,4.28649 c -0.13955,-0.008 -0.16079,0.12294 -0.16079,0.3648 0,0.71872 1.24396,1.54788 1.82446,1.21616 0.387,-0.22115 0.33161,-0.3317 -0.33181,-0.80163 -0.77745,-0.52866 -1.15244,-0.76888 -1.33186,-0.77933 z m -96.467687,0.69662 c -0.08293,0 -0.220992,0.11018 -0.30392,0.27603 -0.08293,0.13822 -0.02808,0.27651 0.110136,0.27651 0.165856,0 0.304387,-0.13829 0.304387,-0.27651 0,-0.16585 -0.05531,-0.27603 -0.110603,-0.27603 z M 34.206742,159.8 c -0.06219,0.0103 -0.124439,0.0446 -0.165902,0.0999 -0.110571,0.0829 -0.193786,0.30443 -0.193786,0.47029 0,0.16586 0.138306,0.1382 0.331805,-0.0553 0.165856,-0.16586 0.248606,-0.38736 0.19332,-0.47029 -0.04147,-0.0415 -0.103242,-0.0549 -0.165437,-0.0446 z m -0.489807,1.08882 c -0.118642,0.0142 -0.534875,0.70274 -0.97543,1.60977 -1.160993,2.37727 -1.409859,3.01319 -1.133432,3.01319 0.276426,0 2.321879,-4.42295 2.12838,-4.61645 -0.0052,-0.005 -0.01161,-0.007 -0.01951,-0.006 z m 121.443165,1.36719 c 0.25723,0.004 0.45309,0.30147 0.45309,0.79558 0,0.85693 -0.88445,0.99477 -2.12838,0.33134 l -0.91223,-0.49723 0.96753,-0.0832 c 0.52522,-0.0553 1.07771,-0.22101 1.24357,-0.35922 0.12958,-0.12958 0.2595,-0.1888 0.37642,-0.18728 z m -18.48485,2.52571 c -0.38133,0 -0.21514,0.21144 0.77654,1.2273 1.07806,1.07807 1.29958,1.21649 1.38251,0.77421 0.13821,-0.66343 -1.07838,-1.87979 -1.96294,-1.99036 -0.076,-0.007 -0.14163,-0.0111 -0.19611,-0.0111 z m -105.479841,1.1167 c -0.05318,0.0105 -0.115931,0.11434 -0.167762,0.30439 -0.08293,0.30407 -0.248651,0.80147 -0.359222,1.10554 -0.08293,0.30407 0.02726,0.19345 0.276039,-0.2212 0.248784,-0.44228 0.414733,-0.91205 0.331804,-1.10555 -0.02073,-0.0622 -0.04896,-0.0895 -0.08086,-0.0832 z m -1.022831,2.78548 c -0.07143,0.0159 -0.219653,0.24831 -0.388964,0.58694 -0.165857,0.35934 -0.19329,0.6636 -0.08272,0.6636 0.248783,0 0.69074,-1.07818 0.497242,-1.24403 -0.0069,-0.007 -0.01536,-0.009 -0.02556,-0.006 z m 135.592242,0.73378 c 0.15528,0.0121 0.44247,0.19347 0.87785,0.54417 0.80163,0.63579 2.26656,2.95774 2.01777,3.20652 -0.27642,0.24879 -2.54299,-2.07286 -2.87471,-2.95743 -0.20213,-0.54421 -0.22055,-0.80881 -0.0209,-0.79326 z m -119.391921,6.97811 c -0.07947,0.007 -0.155814,0.0623 -0.22492,0.17287 -0.110572,0.16586 -0.08267,0.44245 0.08318,0.60831 0.165855,0.16585 0.331609,0.16583 0.469824,-0.0553 0.110569,-0.16585 0.08314,-0.44245 -0.08272,-0.6083 -0.08293,-0.0829 -0.165896,-0.12449 -0.245369,-0.11757 z m 78.204511,0.47679 c 0.1313,0.0138 0.18633,0.23514 0.13105,0.66361 -0.0829,0.71871 -0.22114,0.82922 -0.80163,0.63572 -0.1935,-0.0829 -0.19324,-0.30426 0.0832,-0.7189 0.24879,-0.40082 0.4561,-0.59425 0.5874,-0.58043 z m -0.34575,2.46716 c 0.15204,0.0138 0.28347,0.17306 0.28347,0.46331 0,0.27643 -0.083,0.77362 -0.16589,1.13297 -0.13822,0.46993 -0.27613,0.55318 -0.55255,0.30439 -0.1935,-0.16586 -0.30413,-0.46989 -0.22121,-0.69103 0.0553,-0.22114 0.1657,-0.58049 0.24863,-0.80163 0.0829,-0.29024 0.25552,-0.42183 0.40755,-0.40801 z m 41.53967,2.21249 c 0.52964,-0.0165 1.08914,0.13019 1.31374,0.40662 0.27643,0.33171 0.27643,0.4978 0,0.82952 -0.30407,0.35935 -0.47008,0.33142 -1.40994,-0.1938 -0.74635,-0.41463 -0.96746,-0.66318 -0.74632,-0.82904 0.21768,-0.13475 0.52474,-0.20342 0.84252,-0.2133 z m -118.144172,2.22411 c -0.158946,0 -0.317895,0.13147 -0.428466,0.39407 -0.1935,0.55286 0.05521,0.80181 0.580426,0.60832 0.248783,-0.11058 0.35943,-0.35953 0.276504,-0.60832 -0.110572,-0.2626 -0.26952,-0.39407 -0.428464,-0.39407 z m 122.056112,0.27836 c 0.34661,-0.0254 0.68744,0.11926 1.05025,0.44752 0.46992,0.41464 0.69141,1.18827 0.35969,1.18827 -0.0829,0 -0.66355,-0.24871 -1.29933,-0.58043 -0.85693,-0.44228 -1.05041,-0.63554 -0.74633,-0.82905 0.21768,-0.13475 0.42775,-0.21108 0.63572,-0.22631 z m -109.193817,0.027 c -0.05701,0.0143 -0.09834,0.16463 -0.07761,0.39269 0,0.30407 0.08298,0.38703 0.165902,0.16589 0.08293,-0.19349 0.05504,-0.44219 -0.02788,-0.52512 -0.02073,-0.0276 -0.04141,-0.0382 -0.06041,-0.0334 z m 94.971777,4.14523 c -0.33171,-0.0138 -0.73254,0.0344 -1.28539,0.14499 -0.33172,0.0553 -0.74637,0.30445 -0.91223,0.52559 -0.1935,0.22114 -0.5805,0.38664 -0.85693,0.38664 -0.30407,0 -0.52513,0.11065 -0.52513,0.2765 0,0.13822 0.13831,0.24908 0.33181,0.19379 0.22113,-0.0276 0.35922,0.35899 0.35922,1.18827 0,1.21627 -1.5e-4,1.24387 1.16085,1.49266 1.43742,0.30406 1.79679,0.0553 2.57079,-1.71386 0.69106,-1.54799 0.6913,-1.90705 0.0279,-2.2664 -0.27642,-0.13821 -0.53915,-0.21435 -0.87087,-0.22818 z m -103.737175,3.26414 c -0.138373,-0.0302 -0.714454,0.43991 -1.512636,1.2761 -0.663422,0.66342 -1.105294,1.21662 -1.022365,1.21662 0.276425,0 2.155875,-1.65893 2.432301,-2.12885 0.138214,-0.23323 0.165601,-0.35014 0.1027,-0.36387 z m -3.223704,2.83242 c -0.166572,0.01 -0.641961,0.23197 -1.440144,0.65524 -0.746351,0.387 -1.326751,0.85699 -1.326751,1.07813 0,0.69108 0.636079,0.44233 1.907643,-0.69103 0.777448,-0.71525 1.073415,-1.05467 0.859252,-1.04234 z m 105.177779,0.48934 c -0.24878,0 -0.33155,0.16574 -0.24862,0.41453 0.11057,0.22114 0.27631,0.41498 0.41452,0.41498 0.13821,0 0.24862,-0.19384 0.24862,-0.41498 0,-0.22115 -0.19338,-0.41453 -0.41452,-0.41453 z m -0.72541,2.23666 c -0.0201,-0.005 -0.0362,-0.005 -0.0484,0.003 -0.0276,0.0276 -0.24916,0.083 -0.52559,0.16589 -0.55286,0.13822 -0.69086,0.49752 -0.93964,2.29429 -0.11058,0.88456 -0.0829,1.38205 0.11059,1.38205 0.13822,0 0.69117,0.38701 1.18874,0.85693 0.88456,0.80164 1.9626,1.10567 2.40488,0.69103 0.33171,-0.35936 0.13788,-2.23902 -0.35968,-3.20652 -0.38873,-0.75153 -1.53031,-2.11018 -1.83097,-2.186 z m -44.60863,1.90996 c -0.13821,0 -0.0826,0.13783 0.13848,0.27604 0.22114,0.13821 0.55282,0.27651 0.69103,0.27651 0.16585,0 0.0826,-0.1383 -0.13848,-0.27651 -0.22115,-0.13821 -0.52517,-0.27604 -0.69103,-0.27604 z m 4.24142,0.26536 c -0.2559,0.0101 -0.47157,0.0749 -0.5925,0.20447 -0.66343,0.63578 0.35926,2.57078 1.32675,2.57078 0.44228,0 1.52054,-0.93975 1.52054,-1.32675 0,-0.13821 -0.24894,-0.4978 -0.553,-0.82951 -0.3801,-0.39909 -1.13878,-0.64126 -1.70179,-0.61899 z m -99.183456,3.89475 c -0.15549,0 -0.286727,0.12438 -0.286727,0.37316 0,0.1935 -0.193606,0.71857 -0.387105,1.16085 -0.41464,0.77399 -0.359549,1.21615 0.13802,1.21615 0.386997,0 1.161029,-1.90707 0.96753,-2.377 -0.09675,-0.24878 -0.276227,-0.37316 -0.431718,-0.37316 z m 74.762853,0.55625 c -0.04837,-0.0242 -0.152113,0.0656 -0.276504,0.28673 -0.110572,0.16586 -0.13823,0.3316 -0.0553,0.41453 0.05529,0.0829 0.193576,-0.0551 0.276503,-0.30392 0.09675,-0.23496 0.103677,-0.37315 0.05531,-0.39734 z m 32.342093,4.68198 c -0.24879,0 -0.33156,0.16574 -0.24863,0.41452 0.11058,0.22114 0.27631,0.33202 0.41452,0.24908 0.38701,-0.22114 0.27639,-0.6636 -0.16589,-0.6636 z m 67.25403,1.95411 c -0.33014,-0.009 -0.64548,0.32999 -0.93918,1.00378 -0.387,0.93985 -0.58037,2.98521 -0.35922,4.31206 0.11057,0.85692 1.29898,1.13328 2.5429,0.58042 1.60328,-0.7187 1.99012,-2.23903 1.10555,-4.11874 -0.24879,-0.55285 -0.66322,-0.96752 -0.93965,-0.96752 -0.24879,0 -0.60813,-0.19339 -0.80163,-0.41453 -0.20732,-0.25914 -0.41068,-0.38996 -0.60877,-0.39547 z m -49.10332,2.82126 c -0.34899,-0.007 -0.72213,0.15869 -1.04002,0.50422 -0.27643,0.33171 -0.80172,0.6913 -1.13344,0.82951 -0.99513,0.387 -0.71861,1.05042 0.33181,0.80162 0.16586,-0.0276 0.77414,-0.083 1.35463,-0.11059 1.24392,-0.0276 1.87963,-0.69102 1.38206,-1.49266 -0.22114,-0.34553 -0.54605,-0.52518 -0.89504,-0.5321 z m -4.65781,0.0339 c -0.0726,0.002 -0.14128,0.0283 -0.19657,0.0836 -0.30407,0.30407 -0.16602,0.63573 0.24862,0.63573 0.22114,0 0.41452,-0.11087 0.41452,-0.24909 0,-0.26951 -0.24888,-0.47677 -0.46657,-0.47028 z m -51.662018,2.04008 c -0.139292,0.0259 -0.316245,0.20291 -0.558118,0.53116 -0.995136,1.38214 -1.437685,3.2893 -1.797042,7.68448 -0.110569,1.65857 -0.303951,3.34511 -0.414521,3.7321 -0.110572,0.387 -0.220979,1.74141 -0.248623,3.04061 -0.02764,1.29921 -0.138515,2.70916 -0.249084,3.1238 -0.110572,0.41464 -0.08291,0.96736 0.0553,1.21614 0.276428,0.46993 0.470141,-0.8019 0.774212,-5.16945 0.08292,-1.2992 0.276534,-2.54297 0.387104,-2.76411 0.110569,-0.22114 0.303711,-1.46489 0.386639,-2.7641 0.359355,-4.97568 0.470056,-5.55635 1.299336,-6.49621 0.82928,-0.93985 0.967422,-1.40964 0.580424,-2.01778 -0.06219,-0.0933 -0.13205,-0.13219 -0.215626,-0.11664 z m 101.304878,1.7199 c -0.16587,0 -0.22118,0.11041 -0.11061,0.24862 0.0829,0.13821 0.85694,0.63609 1.71386,1.10601 1.54799,0.85693 2.57078,1.07777 2.57078,0.60784 0,-0.35934 -1.29903,-1.13343 -1.90717,-1.13343 -0.30407,0 -0.60834,-0.11065 -0.71891,-0.2765 -0.0829,-0.13821 -0.33163,-0.19306 -0.52512,-0.11013 -0.22115,0.0829 -0.46986,0.0273 -0.58043,-0.13849 -0.0829,-0.16585 -0.3042,-0.30392 -0.4424,-0.30392 z m -105.75403,2.88864 c -0.117481,0.0138 -0.255427,0.15204 -0.504212,0.42847 -0.525209,0.5805 -0.525449,0.60795 -0.02789,0.99495 0.386999,0.27643 0.635802,0.30432 0.912231,0.0832 0.442282,-0.38699 0.442282,-0.58059 0,-1.18873 -0.165856,-0.22114 -0.262655,-0.33169 -0.380136,-0.31787 z m 113.8665,4.07785 c -0.43294,-0.006 -0.86126,0.31033 -1.56097,0.99449 -0.5805,0.55285 -1.24409,1.5758 -1.46524,2.26686 -0.22114,0.69107 -0.6079,1.46508 -0.82904,1.71386 -0.93985,1.05042 0.71876,3.53832 1.82446,2.73668 0.24878,-0.16585 0.69088,-0.41478 0.99495,-0.553 0.30406,-0.13821 0.85679,-0.58053 1.21615,-0.96753 0.52521,-0.55285 0.94014,-0.71891 1.85234,-0.71891 1.4927,0 1.79678,-0.46957 0.85692,-1.24356 -0.58048,-0.44229 -0.77399,-0.88484 -0.85692,-1.79705 -0.0829,-0.93985 -0.27667,-1.35431 -0.88481,-1.85188 -0.47165,-0.37489 -0.81111,-0.57509 -1.14784,-0.57996 z m -50.79394,5.32142 c -0.0505,-0.013 -0.0817,0.13728 -0.0817,0.42753 0,0.38701 0.0556,0.5253 0.13848,0.33181 0.0553,-0.16585 0.0553,-0.49752 0,-0.69103 -0.0207,-0.0415 -0.0398,-0.064 -0.0567,-0.0683 z m -79.11906,0.47261 c -0.131303,-0.0173 -0.283432,0.0381 -0.546038,0.14871 -0.497567,0.1935 -0.442267,1.32663 0.05531,1.74128 0.912207,0.74635 1.769152,-0.74634 0.912228,-1.60326 -0.179676,-0.17968 -0.290191,-0.26945 -0.421492,-0.28673 z m 127.74373,2.71949 c -0.22114,0 -0.38711,0.19339 -0.38711,0.41453 0,0.22114 0.74635,1.16087 1.65855,2.07308 1.13336,1.13335 1.65857,1.87966 1.65857,2.34958 0,0.96749 -1.3541,3.67662 -1.9346,3.87013 -0.80164,0.24878 -0.33192,1.16077 0.93964,1.74127 1.38214,0.66343 4.33979,1.43735 5.4455,1.43735 0.5805,0 0.8849,-0.19326 1.21662,-0.82904 0.22114,-0.44229 0.41452,-1.05057 0.41452,-1.35464 0,-0.30407 0.24847,-0.60787 0.55254,-0.71844 0.44229,-0.13821 0.52532,-0.33169 0.38711,-0.74633 -0.0829,-0.30407 -0.22122,-0.88469 -0.27651,-1.29934 -0.38699,-2.76426 -0.41465,-2.81963 -1.71385,-3.64891 -1.38214,-0.88457 -2.57071,-1.02289 -3.09592,-0.3871 -0.1935,0.22114 -0.60793,0.41498 -0.93964,0.41498 -0.69107,-0.0276 -2.10097,-1.18866 -2.10097,-1.76916 0,-0.46993 -1.2716,-1.54796 -1.82445,-1.54796 z M 64.909327,235.4565 c -0.06559,0.0159 -0.147428,0.0947 -0.240721,0.23979 -0.08292,0.13821 -0.02737,0.33183 0.138485,0.4424 0.138214,0.0829 0.276503,-0.028 0.276503,-0.24909 0,-0.31097 -0.06494,-0.45956 -0.174267,-0.4331 z m 22.552004,1.37508 c -0.10204,-0.004 -0.222282,0.0567 -0.346675,0.19146 -0.276425,0.27642 -0.221125,2.23902 0.05531,2.40489 0.221141,0.16585 0.580426,-1.07794 0.580426,-2.07309 0,-0.32825 -0.118985,-0.51624 -0.289052,-0.52326 z m -24.727321,2.48574 c -0.221141,0 -0.414987,0.19385 -0.414987,0.41499 0,0.22114 0.193846,0.41452 0.414987,0.41452 0.221142,0 0.414525,-0.19338 0.414525,-0.41452 0,-0.22114 -0.193383,-0.41499 -0.414525,-0.41499 z m 17.105581,0.0497 c -0.05701,0.0143 -0.0988,0.16463 -0.07807,0.39269 0,0.30407 0.08298,0.38704 0.165902,0.1659 0.08293,-0.1935 0.05551,-0.44219 -0.02742,-0.52512 -0.02073,-0.0276 -0.04141,-0.0382 -0.06041,-0.0335 z m -18.701865,0.61529 c -0.195335,0.0139 -0.463304,0.14729 -0.836482,0.3857 -0.691066,0.46993 -2.404884,2.2114 -2.404884,2.46019 0,0.0829 0.138291,0.3593 0.276504,0.63573 0.442283,0.82928 1.907197,0.4974 2.819407,-0.60831 0.580495,-0.69107 0.746537,-1.16105 0.663608,-1.87976 -0.06911,-0.70834 -0.192597,-1.01677 -0.518153,-0.99355 z m 18.821296,0.83601 c -0.119048,-0.0197 -0.22492,0.14056 -0.22492,0.40663 0,0.3317 0.138291,0.58042 0.276504,0.58042 0.165855,0 0.276504,-0.16597 0.276504,-0.38711 0,-0.22114 -0.110649,-0.49749 -0.276504,-0.58042 -0.01727,-0.0103 -0.03458,-0.0167 -0.05158,-0.0195 z m -24.163625,0.71055 c -0.05529,0 -0.110601,0.11064 -0.110601,0.2765 0,0.13821 0.13853,0.2765 0.304388,0.2765 0.138212,0 0.193063,-0.13829 0.110137,-0.2765 -0.08293,-0.16586 -0.220995,-0.2765 -0.303924,-0.2765 z m 86.963863,1.93506 c -0.13821,0 -0.2765,0.11065 -0.2765,0.2765 0,0.13822 0.13829,0.2765 0.2765,0.2765 0.16585,0 0.27651,-0.13828 0.27651,-0.2765 0,-0.16585 -0.11066,-0.2765 -0.27651,-0.2765 z"
       inkscape:label="splatter" />
  </g>
  <g
     inkscape:groupmode="layer"
     id="layer2"
     inkscape:label="shield"
     sodipodi:insensitive="true">
    <g
       id="g1281"
       transform="translate(174.26877,10.429181)"
       inkscape:label="shield group"
       sodipodi:insensitive="true">
      <path
         id="path2122"
         style="display:block;visibility:visible;fill:#ffffff;fill-opacity:1;fill-rule:nonzero;stroke:none;stroke-width:0.810636;stroke-linecap:round;stroke-linejoin:bevel;stroke-miterlimit:4;stroke-dasharray:none;stroke-dashoffset:0;stroke-opacity:1;marker:none;marker-start:none;marker-mid:none;marker-end:none"
         inkscape:label="outline"
         d="m -67.033203,82.919922 c -4.944376,0.0026 -9.891422,-0.05175 -14.833985,0.05664 -1.421578,0.228093 -2.09308,1.652181 -2.589751,2.833564 -1.182986,1.478441 -2.97901,2.298119 -4.675747,3.03074 -3.127143,1.078035 -6.493014,0.715027 -9.613233,0.116422 -6.544081,-1.277141 -12.819301,-3.531866 -19.099781,-5.81471 -1.9205,-0.423488 -3.49034,1.394222 -3.83531,3.123297 -0.45146,1.917773 -0.055,3.898912 -0.20617,5.843886 -0.0768,10.720789 0.10924,21.510489 2.06506,32.083249 3.07186,17.65827 10.02506,34.8189 21.220348,48.90787 5.781835,7.28821 12.560453,13.87598 20.428894,18.88385 2.739223,1.52553 5.37188,3.27072 8.221706,4.57972 1.953932,0.32039 3.427508,-1.25511 5.0659,-2.00691 3.991615,-2.21514 7.975662,-4.52206 11.401646,-7.56989 15.463408,-12.73322 26.249426,-30.60706 31.754549,-49.76328 3.960592,-13.61443 5.313043,-27.87196 5.072827,-42.014214 -0.02447,-2.982054 0.09707,-5.975867 -0.162109,-8.948437 -0.450931,-1.528646 -1.599326,-3.268808 -3.398438,-3.150391 -2.578611,0.603703 -4.977825,1.783989 -7.519821,2.518649 -5.465985,1.816855 -10.998283,3.543302 -16.78096,3.891507 -2.379788,0.08734 -4.797978,-0.375156 -6.8633,-1.597202 -1.311664,-0.74057 -2.744946,-1.671505 -3.204859,-3.1856 -0.5295,-1.202083 -1.812153,-2.030352 -3.140038,-1.818815 -3.102416,-0.02861 -6.204961,-0.0057 -9.307428,5.5e-5 z"
         sodipodi:insensitive="true" />
      <path
         id="path2282"
         style="display:block;visibility:visible;fill:#25404d;fill-opacity:1;fill-rule:nonzero;stroke:none;stroke-width:0.810636;stroke-linecap:round;stroke-linejoin:bevel;stroke-miterlimit:4;stroke-dasharray:none;stroke-dashoffset:0;stroke-opacity:1;marker:none;marker-start:none;marker-mid:none;marker-end:none"
         d="m -81.519055,85.560581 c -0.11504,2.104448 -3.121543,4.08299 -5.049305,5.054274 -1.927749,0.971283 -3.635425,1.391505 -5.516975,1.5166 -3.531579,0.227615 -6.99208,-0.435026 -10.441735,-1.277921 -5.45302,-1.363371 -10.78741,-3.170438 -16.03572,-5.183448 -0.67489,1.446432 0,0 -0.67489,1.446432 0.0534,8.313352 -0.22501,16.646772 0.51935,24.937542 1.28514,15.45046 5.25201,30.7683 12.46125,44.437 6.784919,12.86951 16.364318,24.2956 28.19518,32.50194 l 8.742631,5.05161 8.842857,-5.05161 c 11.83086,-8.20634 21.410258,-19.63243 28.195177,-32.50194 7.20924,-13.6687 11.176117,-28.98654 12.461256,-44.437 0.74435,-8.29077 0.465947,-16.62419 0.519348,-24.937542 -0.674894,-1.446432 0,0 -0.674894,-1.446432 -5.248301,2.01301 -10.582695,3.820077 -16.035713,5.183448 -3.449661,0.842895 -6.91016,1.505536 -10.441741,1.277921 -1.88155,-0.125095 -3.589226,-0.545317 -5.516975,-1.5166 -1.92776,-0.971284 -4.934265,-2.949826 -5.049306,-5.054274 h -12.249896 z"
         inkscape:label="body"
         sodipodi:nodetypes="cscccccccccccccccsccc"
         sodipodi:insensitive="true" />
    </g>
  </g>
  <g
     inkscape:groupmode="layer"
     id="layer4"
     inkscape:label="swords"
     sodipodi:insensitive="true">
    <g
       id="g2298"
       transform="translate(-2.8855805)"
       inkscape:label="swords group"
       sodipodi:insensitive="true">
      <g
         id="g2259"
         inkscape:label="knights_sword group"
         transform="matrix(0.76690499,-0.31766245,0.31766245,0.76690499,48.01475,-117.69338)"
         sodipodi:insensitive="true">
        <path
           id="path2246"
           style="fill:#ffffff;fill-opacity:1;fill-rule:nonzero;stroke:none;stroke-width:0.0220157"
           d="m -130.22656,348.68164 c -2.26534,1.18675 -4.53144,2.37205 -6.79688,3.55859 0,1.71159 0,3.42318 0,5.13477 -10.50255,-0.008 -21.03157,0.0156 -31.51758,-0.0117 -0.45555,-2.33997 -3.06625,-4.20109 -5.403,-3.4742 -0.9521,0.55541 -0.5823,1.7494 -0.64192,2.63436 0,5.65429 0,11.30859 0,16.96289 2.22301,0.4676 4.89088,-0.49312 5.76373,-2.71304 0.24669,-0.45653 0.12481,-1.1192 0.8519,-0.87485 10.31562,0 20.63125,0 30.94687,0 0,1.71159 0,3.42317 0,5.13476 2.52392,1.32194 5.04844,2.64274 7.57227,3.96485 0,-3.00977 0,-6.01953 0,-9.0293 43.192719,1.85321 86.385341,3.70889 129.57812312,5.56055 C 6.8195458,371.56491 13.511758,367.59988 20.205078,363.63672 13.511759,359.67356 6.8195456,355.70853 0.12695312,351.74414 -43.065829,353.5958 -86.258451,355.45148 -129.45117,357.30469 c 0,-3.00977 0,-6.01953 0,-9.0293 -0.25847,0.13542 -0.51693,0.27083 -0.77539,0.40625 z"
           inkscape:label="outline"
           sodipodi:insensitive="true" />
        <path
           id="path1822"
           style="fill:#25404d;fill-opacity:1;fill-rule:nonzero;stroke:none;stroke-width:0.0220157"
           d="m -131.03819,350.90077 -4.39659,2.30005 v 7.2081 l -3.22721,3.22754 3.22721,3.22755 v 7.20842 l 4.39659,2.30004 v -8.06272 -1.44349 l 3.2298,-3.2298 -3.2298,-3.2298 v -1.44316 z m 0,8.06273 4.79068,4.67296 -4.79068,4.67329 130.761432,5.61498 17.36383,-10.28827 -17.36383,-10.28761 z m -41.95961,-3.64194 v 16.63046 c 1.62696,0 2.94793,-1.31905 2.94793,-2.946 V 358.2669 c 0,-1.62675 -1.32097,-2.94534 -2.94793,-2.94534 z m 3.69419,3.64194 v 9.34625 h 33.62696 l -4.67393,-4.67329 4.67393,-4.67296 z"
           inkscape:label="body"
           sodipodi:insensitive="true" />
        <path
           id="path1830"
           style="fill:#ffffff;fill-opacity:1;fill-rule:nonzero;stroke:none;stroke-width:0.0220157"
           d="m -0.594088,354.61271 -127.502622,5.47501 3.63905,3.54874 H 14.636102 Z m -167.692372,5.43147 v 6.86078 h 0.66047 v -6.20031 h 2.00786 v 6.20031 h 0.66047 v -6.20031 h 2.00786 v 6.20031 h 0.66047 v -6.20031 h 2.00786 v 6.20031 h 0.66047 v -6.20031 h 2.00786 v 6.20031 h 0.66047 v -6.20031 h 2.00786 v 6.20031 h 0.66047 v -6.20031 h 2.0056 v 6.20031 h 0.66048 v -6.20031 h 2.00785 v 6.20031 h 0.66048 v -6.20031 h 2.00753 v 6.20031 h 0.66048 v -6.20031 h 2.00785 v 6.20031 h 0.66047 v -6.20031 h 2.00787 v 6.20031 h 0.66047 v -6.20031 h 2.36034 v -0.66047 z m 35.05111,1.39383 c -1.21527,0 -2.19943,0.98406 -2.19943,2.19845 0,1.21438 0.98416,2.19878 2.19943,2.19878 1.21306,0 2.19716,-0.9844 2.19716,-2.19878 0,-1.21439 -0.9841,-2.19845 -2.19716,-2.19845 z"
           inkscape:label="innerd"
           sodipodi:insensitive="true" />
      </g>
      <g
         id="g2254"
         inkscape:label="cutlass group"
         transform="matrix(0.76690499,0.31766245,-0.31766245,0.76690499,127.3625,-135.419)"
         sodipodi:insensitive="true">
        <path
           id="path2241"
           style="fill:#ffffff;fill-opacity:1;fill-rule:nonzero;stroke:none;stroke-width:0.0220157"
           d="m 64.919922,347.70898 c -8.123861,6.75946 -17.359694,12.29431 -27.556409,15.19946 -1.44799,0.42988 -2.904691,0.82937 -4.357654,1.24195 12.848406,8.5346 27.557252,14.31159 42.842805,16.47597 9.43249,1.41064 19.076273,1.29305 28.514356,0.19681 25.73902,-2.46645 51.47804,-4.93289 77.21706,-7.39934 0.5099,2.05572 1.30693,4.02833 2.23242,5.92969 1.25781,0 2.51563,0 3.77344,0 0,-2.00456 0,-4.00912 0,-6.01368 12.38287,1.87913 25.05122,1.88842 37.43359,0.002 0.93333,1.7913 3.91873,1.91662 4.83203,0.0391 0.7415,-1.39017 0.2513,-3.00847 0.39348,-4.50195 -0.0457,-2.39012 0.13346,-4.8035 -0.13559,-7.17767 -0.50486,-1.8952 -3.20682,-2.58291 -4.57429,-1.18171 -0.35457,0.26875 -0.38887,0.9136 -0.96756,0.59866 -12.23841,-1.81894 -24.74953,-1.78879 -36.98166,0.0693 0,-2.00391 0,-4.00781 0,-6.01172 -1.25912,0 -2.51823,0 -3.77735,0 -0.98542,2.06724 -1.84432,4.2075 -2.36132,6.44336 -26.7073,-0.0651 -53.48457,-1.04005 -79.91726,-4.84492 -10.094575,-1.49437 -20.150973,-3.42575 -29.890854,-6.58972 -2.211324,-0.74403 -4.377925,-1.62467 -6.457515,-2.6845 -0.08724,0.0697 -0.17448,0.13932 -0.261719,0.20898 z"
           inkscape:label="outline"
           sodipodi:insensitive="true" />
        <path
           id="path1880"
           style="fill:#25404d;fill-opacity:1;fill-rule:nonzero;stroke:none;stroke-width:0.0220157"
           d="m 65.383325,349.37248 c -9.535008,7.8726 -19.038778,12.75677 -28.518308,15.33306 0.107876,0.0663 0.216215,0.1329 0.324752,0.20027 18.805388,11.65952 40.914286,16.83763 62.939911,14.72742 l 81.56662,-7.81473 c -0.62524,-2.86975 -0.62524,-5.73948 0,-8.60965 -91.559415,0 -116.312975,-13.83637 -116.312975,-13.83637 z m 119.445705,7.39031 c -3.28694,7.00055 -3.28694,14.00112 0,21.0019 h 1.16904 v -21.0019 z m 21.49145,4.58557 c -6.39749,0 -12.79503,0.50214 -19.13336,1.50606 v 8.81865 c 12.67666,2.00762 25.59098,2.00762 38.26542,0 v -8.81865 c -6.33722,-1.00392 -12.73456,-1.50606 -19.13206,-1.50606 z m 21.14218,0 c -0.66047,0 -1.19775,0.53597 -1.19775,1.19711 v 9.43655 c 0,0.66092 0.53728,1.19711 1.19775,1.19711 0.66049,0 1.19744,-0.53619 1.19744,-1.19711 v -9.43655 c 0,-0.66114 -0.53695,-1.19711 -1.19744,-1.19711 z"
           inkscape:label="body"
           sodipodi:insensitive="true" />
        <path
           id="path1882"
           style="fill:#ffffff;fill-opacity:1;fill-rule:nonzero;stroke:none;stroke-width:0.0220157"
           d="m 206.26372,362.59609 -8.9957,8.99507 c 0.44251,0.0333 0.88514,0.0597 1.32546,0.088 l 9.07245,-9.07116 c -0.46672,-0.005 -0.93547,-0.0122 -1.40221,-0.0118 z m -3.41685,0.0545 c -0.48654,0.014 -0.97532,0.0291 -1.46187,0.049 l -8.48487,8.48422 c 0.42712,0.0476 0.85424,0.0881 1.28353,0.13126 z m 8.104,0.0351 -9.1608,9.16049 c 0.45792,0.0174 0.91588,0.0272 1.37382,0.0393 l 9.1363,-9.13728 c -0.44911,-0.0222 -0.9002,-0.0452 -1.34932,-0.0626 z m -13.12816,0.21252 c -0.51076,0.0361 -1.02142,0.0773 -1.53218,0.11998 l -7.61541,7.61637 c 0.4117,0.0608 0.82578,0.11694 1.23966,0.17351 z m 17.64569,0.0458 -8.98699,8.98634 c 0.47554,0 0.95118,-0.007 1.42671,-0.0132 l 8.86349,-8.8638 c -0.43591,-0.0376 -0.8695,-0.0763 -1.30321,-0.10932 z m 4.36337,0.41053 -8.46713,8.46777 c 0.49314,-0.0207 0.98838,-0.0421 1.48154,-0.0687 l 8.24719,-8.24655 c -0.42049,-0.0515 -0.84111,-0.10521 -1.2616,-0.15253 z m -27.2709,0.0297 c -0.53499,0.0614 -1.07201,0.12641 -1.607,0.19511 l -2.51643,2.51642 v 1.41318 z m 31.49592,0.52114 -7.59318,7.59447 c 0.51737,-0.0436 1.03448,-0.0889 1.55186,-0.13932 l 6.1887,-6.18838 v -1.24612 c -0.0484,-0.007 -0.099,-0.0134 -0.14738,-0.0207 z m -180.321967,2.34134 c -0.0031,0.006 0.08008,0.0497 0.245419,0.12803 0.166658,0.0764 0.413799,0.18992 0.737871,0.33829 0.325832,0.14554 0.728862,0.32537 1.204846,0.53761 0.23843,0.10545 0.495263,0.21925 0.769798,0.34056 0.276073,0.11712 0.563013,0.26019 0.882024,0.37312 0.632955,0.23976 1.336022,0.50648 2.105254,0.79818 0.385056,0.1453 0.786238,0.29676 1.203877,0.4544 0.419844,0.15102 0.863825,0.28381 1.319331,0.43439 0.456605,0.14752 0.928756,0.30022 1.416402,0.45763 0.243711,0.0788 0.491186,0.15859 0.742385,0.23961 0.251418,0.081 0.505847,0.16667 0.769152,0.23381 1.048609,0.28709 2.156478,0.59077 3.319133,0.90912 4.67327,1.18576 10.32034,2.23364 16.62498,2.91085 6.30464,0.67281 13.25689,0.97268 20.51525,0.94846 14.525755,-0.0356 30.240035,-1.4674 44.778565,-2.87377 7.27201,-0.70361 14.25758,-1.38614 20.6723,-1.89692 6.41494,-0.5145 12.25808,-0.85153 17.22483,-0.95522 l -0.0242,-1.21065 c -5.4643,0.11955 -11.67728,0.51146 -18.35421,1.081 -6.67869,0.56472 -13.82324,1.31293 -21.17605,2.05882 -14.69945,1.50125 -30.26154,2.96393 -44.510565,3.0379 -1.78041,0.032 -3.53831,-0.01 -5.27183,-0.0216 -0.86676,0 -1.72611,-0.0417 -2.57901,-0.0648 -0.85288,-0.0271 -1.69881,-0.0535 -2.53739,-0.0797 -0.83748,-0.0462 -1.66728,-0.0923 -2.48935,-0.13739 -0.41103,-0.0229 -0.82035,-0.0456 -1.22742,-0.068 -0.20364,-0.0112 -0.40632,-0.0223 -0.60887,-0.0335 -0.2021,-0.0165 -0.40335,-0.0331 -0.60435,-0.0494 -0.80423,-0.0656 -1.60007,-0.13051 -2.38648,-0.19479 -0.3932,-0.0319 -0.78434,-0.0634 -1.17291,-0.0951 -0.38792,-0.0421 -0.7733,-0.0837 -1.15615,-0.12513 -6.13182,-0.62986 -11.60408,-1.6149 -16.12963,-2.72251 -4.540742,-1.06798 -8.086011,-2.38016 -10.541425,-3.25043 -1.207783,-0.49028 -2.145593,-0.87081 -2.781848,-1.12906 -0.319449,-0.12615 -0.562889,-0.2223 -0.726907,-0.28702 -0.164679,-0.063 -0.250415,-0.0925 -0.252837,-0.0867 z m 180.469347,2.28746 -2.39971,2.40002 c 0.546,-0.0707 1.09424,-0.14824 1.64022,-0.22639 l 0.75949,-0.76012 z"
           inkscape:label="innerd"
           sodipodi:insensitive="true" />
      </g>
    </g>
  </g>
  <g
     inkscape:label="ruby_logo"
     inkscape:groupmode="layer"
     id="layer1"
     sodipodi:insensitive="true">
    <g
       style="overflow:visible"
       id="g1187"
       transform="matrix(0.33922432,0,0,0.33922432,75.211435,79.767647)"
       inkscape:label="logo group"
       sodipodi:insensitive="true">
      <path
         id="polygon1211"
         style="clip-rule:evenodd;fill:#ffffff;fill-opacity:1;fill-rule:evenodd;filter:url(#filter1366)"
         d="m 68.563136,75.506109 c -1.00409,-0.32527 -34.64035,10.03482 -50.71289,14.94921 l -0.92187,1.92579 -40.79102,37.068361 -0.0351,0.01 c -0.0392,0.0414 -0.0724,0.0817 -0.11133,0.12305 l -0.12891,0.11719 0.0312,-0.01 c -26.01185,27.71925 -7.61971,47.66774 0.74219,56.52344 l -0.14453,-0.0371 110.59765,96.54101 0.0566,-0.0488 0.30468,0.26757 -0.11328,-0.13281 0.625,-0.83398 111.537114,-95.70899 -0.26758,0.0898 c 3.51235,-3.31582 6.5983,-6.97825 8.93946,-10.97071 l 0.0254,0.0332 c 7.41341,-11.99291 6.6468,-25.28386 -3.3711,-39.22657 l 0.0117,0.004 -0.0273,-0.0273 -38.36914,-38.720711 -0.1543,-0.89257 -41.88281,-19.07032 c -18.53256,-0.67104 -54.835764,-1.63324 -55.839854,-1.97265 z m 18.74805,207.019531 0.0156,0.26758 -0.13868,-0.16211 z"
         sodipodi:nodetypes="sccccccccccccccccccccccccsscccc"
         inkscape:label="glow"
         sodipodi:insensitive="true" />
      <g
         id="g1209"
         transform="rotate(45,22.201745,114.75715)"
         inkscape:label="logo"
         sodipodi:insensitive="true">
        <polygon
           style="fill:url(#linearGradient3448);fill-rule:evenodd"
           clip-rule="evenodd"
           points="153.5,130.41 40.38,197.58 186.849,187.641 198.13,39.95 "
           id="polygon3282"
           sodipodi:insensitive="true"
           inkscape:label="logo_part_polygon_8" />
        <polygon
           style="fill:url(#linearGradient1281);fill-rule:evenodd"
           clip-rule="evenodd"
           points="187.089,187.54 174.5,100.65 140.209,145.93 "
           id="polygon3293"
           sodipodi:insensitive="true"
           inkscape:label="logo_part_polygon_7" />
        <polygon
           style="fill:url(#linearGradient1283);fill-rule:evenodd"
           clip-rule="evenodd"
           points="187.259,187.54 95.03,180.3 40.87,197.391 "
           id="polygon3304"
           sodipodi:insensitive="true"
           inkscape:label="logo_part_polygon_6" />
        <polygon
           style="fill:url(#linearGradient1285);fill-rule:evenodd"
           clip-rule="evenodd"
           points="41,197.41 64.04,121.93 13.34,132.771 "
           id="polygon3319"
           sodipodi:insensitive="true"
           inkscape:label="logo_part_polygon_5" />
        <polygon
           style="fill:url(#linearGradient1287);fill-rule:evenodd"
           clip-rule="evenodd"
           points="140.2,146.18 119,63.14 58.33,120.01 "
           id="polygon3334"
           sodipodi:insensitive="true"
           inkscape:label="logo_part_polygon_4" />
        <polygon
           style="fill:url(#linearGradient1289);fill-rule:evenodd"
           clip-rule="evenodd"
           points="193.32,64.31 135.97,17.47 120,69.1 "
           id="polygon3349"
           sodipodi:insensitive="true"
           inkscape:label="logo_part_polygon_3" />
        <polygon
           style="fill:url(#linearGradient1291);fill-rule:evenodd"
           clip-rule="evenodd"
           points="166.5,0.77 132.77,19.41 111.49,0.52 "
           id="polygon3362"
           sodipodi:insensitive="true"
           inkscape:label="logo_part_polygon_2" />
        <polygon
           style="fill:url(#linearGradient1293);fill-rule:evenodd"
           clip-rule="evenodd"
           points="0,158.09 14.13,132.32 2.7,101.62 "
           id="polygon3375"
           sodipodi:insensitive="true"
           inkscape:label="logo_part_polygon_1" />
        <path
           style="fill:#ffffff;fill-rule:evenodd"
           inkscape:connector-curvature="0"
           clip-rule="evenodd"
           d="m 1.94,100.65 11.5,32.62 49.97,-11.211 57.05,-53.02 L 136.56,17.9 111.209,0 68.109,16.13 C 54.53,28.76 28.18,53.75 27.23,54.22 26.29,54.7 9.83,85.81 1.94,100.65 Z"
           id="path3377"
           sodipodi:insensitive="true"
           inkscape:label="logo_part_10" />
        <path
           style="fill:url(#linearGradient1295);fill-rule:evenodd"
           inkscape:connector-curvature="0"
           clip-rule="evenodd"
           d="m 42.32,42.05 c 29.43,-29.18 67.37,-46.42 81.93,-31.73 14.551,14.69 -0.88,50.39 -30.31,79.56 -29.43,29.17 -66.9,47.36 -81.45,32.67 -14.56,-14.68 0.4,-51.33 29.83,-80.5 z"
           id="path3400"
           sodipodi:insensitive="true"
           inkscape:label="logo_part_9" />
        <path
           style="fill:url(#linearGradient1297);fill-rule:evenodd"
           inkscape:connector-curvature="0"
           clip-rule="evenodd"
           d="m 41,197.38 22.86,-75.72 75.92,24.39 C 112.33,171.79 81.8,193.55 41,197.38 Z"
           id="path3413"
           sodipodi:insensitive="true"
           inkscape:label="logo_part_8" />
        <path
           style="fill:url(#linearGradient1299);fill-rule:evenodd"
           inkscape:connector-curvature="0"
           clip-rule="evenodd"
           d="m 120.56,68.89 19.49,77.2 C 162.98,121.98 183.56,96.06 193.639,64 Z"
           id="path3424"
           sodipodi:insensitive="true"
           inkscape:label="logo_part_7" />
        <path
           style="fill:url(#linearGradient1301);fill-rule:evenodd"
           inkscape:connector-curvature="0"
           clip-rule="evenodd"
           d="m 193.44,64.39 c 7.8,-23.54 9.6,-57.31 -27.181,-63.58 l -30.18,16.67 z"
           id="path3435"
           sodipodi:insensitive="true"
           inkscape:label="logo_part_6" />
        <path
           style="fill:#9e1209;fill-rule:evenodd"
           inkscape:connector-curvature="0"
           clip-rule="evenodd"
           d="m 0,157.75 c 1.08,38.851 29.11,39.43 41.05,39.771 L 13.47,133.11 Z"
           id="path3437"
           sodipodi:insensitive="true"
           inkscape:label="logo_part_5" />
        <path
           style="fill:url(#radialGradient1303);fill-rule:evenodd"
           inkscape:connector-curvature="0"
           clip-rule="evenodd"
           d="m 120.669,69.01 c 17.62,10.83 53.131,32.58 53.851,32.98 1.119,0.63 15.31,-23.93 18.53,-37.81 z"
           id="path3448"
           sodipodi:insensitive="true"
           inkscape:label="logo_part_4" />
        <path
           style="fill:url(#radialGradient1305);fill-rule:evenodd"
           inkscape:connector-curvature="0"
           clip-rule="evenodd"
           d="m 63.83,121.66 30.56,58.96 c 18.07,-9.8 32.22,-21.74 45.18,-34.53 z"
           id="path3459"
           sodipodi:insensitive="true"
           inkscape:label="logo_part_3" />
        <path
           style="fill:url(#linearGradient1307);fill-rule:evenodd"
           inkscape:connector-curvature="0"
           clip-rule="evenodd"
           d="m 13.35,133.19 -4.33,51.56 c 8.17,11.16 19.41,12.13 31.2,11.26 -8.53,-21.23 -25.57,-63.68 -26.87,-62.82 z"
           id="path3472"
           sodipodi:insensitive="true"
           inkscape:label="logo_part_2" />
        <path
           style="fill:url(#linearGradient1309);fill-rule:evenodd"
           inkscape:connector-curvature="0"
           clip-rule="evenodd"
           d="m 135.9,17.61 60.71,8.52 C 193.37,12.4 183.42,3.54 166.46,0.77 Z"
           id="path3485"
           sodipodi:insensitive="true"
           inkscape:label="logo_part_1" />
      </g>
    </g>
  </g>
  <g
     inkscape:groupmode="layer"
     id="layer6"
     inkscape:label="title">
    <text
       xml:space="preserve"
       style="font-style:normal;font-weight:normal;font-size:15.78969999999999985px;line-height:0.85;font-family:sans-serif;fill:#25404d;fill-opacity:1;stroke:#ffffff;stroke-width:2.5;stroke-opacity:1;stroke-miterlimit:4;stroke-dasharray:none;stroke-linecap:butt;paint-order:stroke markers fill"
       x="108.34554"
       y="198.97464"
       id="text2874"
       inkscape:label="large_title"><tspan
         sodipodi:role="line"
         id="tspan2872"
         x="108.34554"
         y="198.97464"
         style="font-style:normal;font-variant:normal;font-weight:normal;font-stretch:normal;font-family:'Arial Black';-inkscape-font-specification:'Arial Black, ';text-align:center;text-anchor:middle;stroke-width:2.5;fill:#25404d;fill-opacity:1;stroke:#ffffff;stroke-opacity:1;stroke-miterlimit:4;stroke-dasharray:none;stroke-linecap:butt;paint-order:stroke markers fill">RUBY BATTLE</tspan><tspan
         sodipodi:role="line"
         x="108.34554"
         y="212.64459"
         style="font-style:normal;font-variant:normal;font-weight:normal;font-stretch:normal;font-family:'Arial Black';-inkscape-font-specification:'Arial Black, ';text-align:center;text-anchor:middle;stroke-width:2.5;fill:#25404d;fill-opacity:1;stroke:#ffffff;stroke-opacity:1;stroke-miterlimit:4;stroke-dasharray:none;stroke-linecap:butt;paint-order:stroke markers fill"
         id="tspan2876">FOR GLORY</tspan></text>
  </g>
</svg>
