<?xml version="1.0" encoding="UTF-8" standalone="no"?>
<svg
   xmlns:dc="http://purl.org/dc/elements/1.1/"
   xmlns:cc="http://creativecommons.org/ns#"
   xmlns:rdf="http://www.w3.org/1999/02/22-rdf-syntax-ns#"
   xmlns:svg="http://www.w3.org/2000/svg"
   xmlns="http://www.w3.org/2000/svg"
   xmlns:xlink="http://www.w3.org/1999/xlink"
   xmlns:sodipodi="http://sodipodi.sourceforge.net/DTD/sodipodi-0.dtd"
   xmlns:inkscape="http://www.inkscape.org/namespaces/inkscape"
   width="210mm"
   height="297mm"
   viewBox="0 0 210 297"
   version="1.1"
   id="svg8"
   inkscape:version="1.0.1 (c497b03c, 2020-09-10)"
   sodipodi:docname="logo.svg">
  <defs
     id="defs2">
    <linearGradient
       id="XMLID_17_-9"
       gradientUnits="userSpaceOnUse"
       x1="174.0737"
       y1="215.5488"
       x2="132.27631"
       y2="141.7533">
      <stop
         offset="0"
         style="stop-color:#FB7655"
         id="stop3272-4" />
      <stop
         offset="0"
         style="stop-color:#FB7655"
         id="stop3274-5" />
      <stop
         offset="0.41"
         style="stop-color:#E42B1E"
         id="stop3276-1" />
      <stop
         offset="0.99"
         style="stop-color:#990000"
         id="stop3278-0" />
      <stop
         offset="1"
         style="stop-color:#990000"
         id="stop3280-3" />
    </linearGradient>
    <linearGradient
       id="XMLID_18_-7"
       gradientUnits="userSpaceOnUse"
       x1="194.895"
       y1="153.5576"
       x2="141.0276"
       y2="117.4093">
      <stop
         offset="0"
         style="stop-color:#871101"
         id="stop3285-8" />
      <stop
         offset="0"
         style="stop-color:#871101"
         id="stop3287-8" />
      <stop
         offset="0.99"
         style="stop-color:#911209"
         id="stop3289-6" />
      <stop
         offset="1"
         style="stop-color:#911209"
         id="stop3291-0" />
    </linearGradient>
    <linearGradient
       id="XMLID_19_-4"
       gradientUnits="userSpaceOnUse"
       x1="151.79539"
       y1="217.7852"
       x2="97.929703"
       y2="181.638">
      <stop
         offset="0"
         style="stop-color:#871101"
         id="stop3296-6" />
      <stop
         offset="0"
         style="stop-color:#871101"
         id="stop3298-7" />
      <stop
         offset="0.99"
         style="stop-color:#911209"
         id="stop3300-6" />
      <stop
         offset="1"
         style="stop-color:#911209"
         id="stop3302-0" />
    </linearGradient>
    <linearGradient
       id="XMLID_20_-9"
       gradientUnits="userSpaceOnUse"
       x1="38.696301"
       y1="127.3906"
       x2="47.046902"
       y2="181.66141">
      <stop
         offset="0"
         style="stop-color:#FFFFFF"
         id="stop3307-7" />
      <stop
         offset="0"
         style="stop-color:#FFFFFF"
         id="stop3309-5" />
      <stop
         offset="0.23"
         style="stop-color:#E57252"
         id="stop3311-9" />
      <stop
         offset="0.46"
         style="stop-color:#DE3B20"
         id="stop3313-7" />
      <stop
         offset="0.99"
         style="stop-color:#A60003"
         id="stop3315-8" />
      <stop
         offset="1"
         style="stop-color:#A60003"
         id="stop3317-5" />
    </linearGradient>
    <linearGradient
       id="XMLID_21_-3"
       gradientUnits="userSpaceOnUse"
       x1="96.132797"
       y1="76.715302"
       x2="99.209602"
       y2="132.1021">
      <stop
         offset="0"
         style="stop-color:#FFFFFF"
         id="stop3322-3" />
      <stop
         offset="0"
         style="stop-color:#FFFFFF"
         id="stop3324-8" />
      <stop
         offset="0.23"
         style="stop-color:#E4714E"
         id="stop3326-3" />
      <stop
         offset="0.56"
         style="stop-color:#BE1A0D"
         id="stop3328-7" />
      <stop
         offset="0.99"
         style="stop-color:#A80D00"
         id="stop3330-9" />
      <stop
         offset="1"
         style="stop-color:#A80D00"
         id="stop3332-3" />
    </linearGradient>
    <linearGradient
       id="XMLID_22_-7"
       gradientUnits="userSpaceOnUse"
       x1="147.103"
       y1="25.521"
       x2="156.3141"
       y2="65.216202">
      <stop
         offset="0"
         style="stop-color:#FFFFFF"
         id="stop3337-8" />
      <stop
         offset="0"
         style="stop-color:#FFFFFF"
         id="stop3339-7" />
      <stop
         offset="0.18"
         style="stop-color:#E46342"
         id="stop3341-4" />
      <stop
         offset="0.4"
         style="stop-color:#C82410"
         id="stop3343-1" />
      <stop
         offset="0.99"
         style="stop-color:#A80D00"
         id="stop3345-9" />
      <stop
         offset="1"
         style="stop-color:#A80D00"
         id="stop3347-0" />
    </linearGradient>
    <linearGradient
       id="XMLID_23_-9"
       gradientUnits="userSpaceOnUse"
       x1="118.9761"
       y1="11.5415"
       x2="158.66859"
       y2="-8.3048">
      <stop
         offset="0"
         style="stop-color:#FFFFFF"
         id="stop3352-8" />
      <stop
         offset="0"
         style="stop-color:#FFFFFF"
         id="stop3354-8" />
      <stop
         offset="0.54"
         style="stop-color:#C81F11"
         id="stop3356-5" />
      <stop
         offset="0.99"
         style="stop-color:#BF0905"
         id="stop3358-8" />
      <stop
         offset="1"
         style="stop-color:#BF0905"
         id="stop3360-4" />
    </linearGradient>
    <linearGradient
       id="XMLID_24_-3"
       gradientUnits="userSpaceOnUse"
       x1="3.9033"
       y1="113.5547"
       x2="7.1701999"
       y2="146.2628">
      <stop
         offset="0"
         style="stop-color:#FFFFFF"
         id="stop3365-7" />
      <stop
         offset="0"
         style="stop-color:#FFFFFF"
         id="stop3367-1" />
      <stop
         offset="0.31"
         style="stop-color:#DE4024"
         id="stop3369-3" />
      <stop
         offset="0.99"
         style="stop-color:#BF190B"
         id="stop3371-8" />
      <stop
         offset="1"
         style="stop-color:#BF190B"
         id="stop3373-0" />
    </linearGradient>
    <linearGradient
       id="XMLID_25_-9"
       gradientUnits="userSpaceOnUse"
       x1="-18.5557"
       y1="155.10451"
       x2="135.0152"
       y2="-2.8092999">
      <stop
         offset="0"
         style="stop-color:#BD0012"
         id="stop3380-7" />
      <stop
         offset="0"
         style="stop-color:#BD0012"
         id="stop3382-9" />
      <stop
         offset="0.07"
         style="stop-color:#FFFFFF"
         id="stop3384-9" />
      <stop
         offset="0.17"
         style="stop-color:#FFFFFF"
         id="stop3386-3" />
      <stop
         offset="0.27"
         style="stop-color:#C82F1C"
         id="stop3388-2" />
      <stop
         offset="0.33"
         style="stop-color:#820C01"
         id="stop3390-4" />
      <stop
         offset="0.46"
         style="stop-color:#A31601"
         id="stop3392-3" />
      <stop
         offset="0.72"
         style="stop-color:#B31301"
         id="stop3394-7" />
      <stop
         offset="0.99"
         style="stop-color:#E82609"
         id="stop3396-1" />
      <stop
         offset="1"
         style="stop-color:#E82609"
         id="stop3398-2" />
    </linearGradient>
    <linearGradient
       id="XMLID_26_-2"
       gradientUnits="userSpaceOnUse"
       x1="99.074699"
       y1="171.0332"
       x2="52.817699"
       y2="159.61659">
      <stop
         offset="0"
         style="stop-color:#8C0C01"
         id="stop3403-0" />
      <stop
         offset="0"
         style="stop-color:#8C0C01"
         id="stop3405-2" />
      <stop
         offset="0.54"
         style="stop-color:#990C00"
         id="stop3407-1" />
      <stop
         offset="0.99"
         style="stop-color:#A80D0E"
         id="stop3409-7" />
      <stop
         offset="1"
         style="stop-color:#A80D0E"
         id="stop3411-5" />
    </linearGradient>
    <linearGradient
       id="XMLID_27_-1"
       gradientUnits="userSpaceOnUse"
       x1="178.52589"
       y1="115.5146"
       x2="137.43269"
       y2="78.683998">
      <stop
         offset="0"
         style="stop-color:#7E110B"
         id="stop3416-7" />
      <stop
         offset="0"
         style="stop-color:#7E110B"
         id="stop3418-4" />
      <stop
         offset="0.99"
         style="stop-color:#9E0C00"
         id="stop3420-1" />
      <stop
         offset="1"
         style="stop-color:#9E0C00"
         id="stop3422-7" />
    </linearGradient>
    <linearGradient
       id="XMLID_28_-1"
       gradientUnits="userSpaceOnUse"
       x1="193.6235"
       y1="47.937"
       x2="173.15421"
       y2="26.053801">
      <stop
         offset="0"
         style="stop-color:#79130D"
         id="stop3427-1" />
      <stop
         offset="0"
         style="stop-color:#79130D"
         id="stop3429-1" />
      <stop
         offset="0.99"
         style="stop-color:#9E120B"
         id="stop3431-7" />
      <stop
         offset="1"
         style="stop-color:#9E120B"
         id="stop3433-0" />
    </linearGradient>
    <radialGradient
       id="XMLID_29_-4"
       cx="143.8315"
       cy="79.388199"
       r="50.357601"
       gradientUnits="userSpaceOnUse">
      <stop
         offset="0"
         style="stop-color:#A80D00"
         id="stop3440-0" />
      <stop
         offset="0"
         style="stop-color:#A80D00"
         id="stop3442-8" />
      <stop
         offset="0.99"
         style="stop-color:#7E0E08"
         id="stop3444-5" />
      <stop
         offset="1"
         style="stop-color:#7E0E08"
         id="stop3446-1" />
    </radialGradient>
    <radialGradient
       id="XMLID_30_-6"
       cx="74.0923"
       cy="145.75101"
       r="66.943703"
       gradientUnits="userSpaceOnUse">
      <stop
         offset="0"
         style="stop-color:#A30C00"
         id="stop3451-6" />
      <stop
         offset="0"
         style="stop-color:#A30C00"
         id="stop3453-2" />
      <stop
         offset="0.99"
         style="stop-color:#800E08"
         id="stop3455-1" />
      <stop
         offset="1"
         style="stop-color:#800E08"
         id="stop3457-9" />
    </radialGradient>
    <linearGradient
       id="XMLID_31_-6"
       gradientUnits="userSpaceOnUse"
       x1="26.669901"
       y1="197.33591"
       x2="9.9886999"
       y2="140.742">
      <stop
         offset="0"
         style="stop-color:#8B2114"
         id="stop3462-4" />
      <stop
         offset="0"
         style="stop-color:#8B2114"
         id="stop3464-8" />
      <stop
         offset="0.43"
         style="stop-color:#9E100A"
         id="stop3466-0" />
      <stop
         offset="0.99"
         style="stop-color:#B3100C"
         id="stop3468-8" />
      <stop
         offset="1"
         style="stop-color:#B3100C"
         id="stop3470-1" />
    </linearGradient>
    <linearGradient
       id="XMLID_32_-0"
       gradientUnits="userSpaceOnUse"
       x1="154.6411"
       y1="9.7979002"
       x2="192.039"
       y2="26.305901">
      <stop
         offset="0"
         style="stop-color:#B31000"
         id="stop3475-2" />
      <stop
         offset="0"
         style="stop-color:#B31000"
         id="stop3477-2" />
      <stop
         offset="0.44"
         style="stop-color:#910F08"
         id="stop3479-9" />
      <stop
         offset="0.99"
         style="stop-color:#791C12"
         id="stop3481-7" />
      <stop
         offset="1"
         style="stop-color:#791C12"
         id="stop3483-5" />
    </linearGradient>
    <linearGradient
       y2="141.7533"
       x2="132.27631"
       y1="215.5488"
       x1="174.0737"
       gradientUnits="userSpaceOnUse"
       id="linearGradient3448"
       xlink:href="#XMLID_17_-9"
       inkscape:collect="always" />
    <linearGradient
       inkscape:collect="always"
       xlink:href="#XMLID_18_-7"
       id="linearGradient1281"
       gradientUnits="userSpaceOnUse"
       x1="194.895"
       y1="153.5576"
       x2="141.0276"
       y2="117.4093" />
    <linearGradient
       inkscape:collect="always"
       xlink:href="#XMLID_19_-4"
       id="linearGradient1283"
       gradientUnits="userSpaceOnUse"
       x1="151.79539"
       y1="217.7852"
       x2="97.929703"
       y2="181.638" />
    <linearGradient
       inkscape:collect="always"
       xlink:href="#XMLID_20_-9"
       id="linearGradient1285"
       gradientUnits="userSpaceOnUse"
       x1="38.696301"
       y1="127.3906"
       x2="47.046902"
       y2="181.66141" />
    <linearGradient
       inkscape:collect="always"
       xlink:href="#XMLID_21_-3"
       id="linearGradient1287"
       gradientUnits="userSpaceOnUse"
       x1="96.132797"
       y1="76.715302"
       x2="99.209602"
       y2="132.1021" />
    <linearGradient
       inkscape:collect="always"
       xlink:href="#XMLID_22_-7"
       id="linearGradient1289"
       gradientUnits="userSpaceOnUse"
       x1="147.103"
       y1="25.521"
       x2="156.3141"
       y2="65.216202" />
    <linearGradient
       inkscape:collect="always"
       xlink:href="#XMLID_23_-9"
       id="linearGradient1291"
       gradientUnits="userSpaceOnUse"
       x1="118.9761"
       y1="11.5415"
       x2="158.66859"
       y2="-8.3048" />
    <linearGradient
       inkscape:collect="always"
       xlink:href="#XMLID_24_-3"
       id="linearGradient1293"
       gradientUnits="userSpaceOnUse"
       x1="3.9033"
       y1="113.5547"
       x2="7.1701999"
       y2="146.2628" />
    <linearGradient
       inkscape:collect="always"
       xlink:href="#XMLID_25_-9"
       id="linearGradient1295"
       gradientUnits="userSpaceOnUse"
       x1="-18.5557"
       y1="155.10451"
       x2="135.0152"
       y2="-2.8092999" />
    <linearGradient
       inkscape:collect="always"
       xlink:href="#XMLID_26_-2"
       id="linearGradient1297"
       gradientUnits="userSpaceOnUse"
       x1="99.074699"
       y1="171.0332"
       x2="52.817699"
       y2="159.61659" />
    <linearGradient
       inkscape:collect="always"
       xlink:href="#XMLID_27_-1"
       id="linearGradient1299"
       gradientUnits="userSpaceOnUse"
       x1="178.52589"
       y1="115.5146"
       x2="137.43269"
       y2="78.683998" />
    <linearGradient
       inkscape:collect="always"
       xlink:href="#XMLID_28_-1"
       id="linearGradient1301"
       gradientUnits="userSpaceOnUse"
       x1="193.6235"
       y1="47.937"
       x2="173.15421"
       y2="26.053801" />
    <radialGradient
       inkscape:collect="always"
       xlink:href="#XMLID_29_-4"
       id="radialGradient1303"
       gradientUnits="userSpaceOnUse"
       cx="143.8315"
       cy="79.388199"
       r="50.357601" />
    <radialGradient
       inkscape:collect="always"
       xlink:href="#XMLID_30_-6"
       id="radialGradient1305"
       gradientUnits="userSpaceOnUse"
       cx="74.0923"
       cy="145.75101"
       r="66.943703" />
    <linearGradient
       inkscape:collect="always"
       xlink:href="#XMLID_31_-6"
       id="linearGradient1307"
       gradientUnits="userSpaceOnUse"
       x1="26.669901"
       y1="197.33591"
       x2="9.9886999"
       y2="140.742" />
    <linearGradient
       inkscape:collect="always"
       xlink:href="#XMLID_32_-0"
       id="linearGradient1309"
       gradientUnits="userSpaceOnUse"
       x1="154.6411"
       y1="9.7979002"
       x2="192.039"
       y2="26.305901" />
    <filter
       inkscape:menu="Shadows and Glows"
       inkscape:menu-tooltip="Cut out, add inner shadow and colorize some parts of an image"
       style="color-interpolation-filters:sRGB;"
       inkscape:label="Drop Shadow"
       id="filter1366">
      <feColorMatrix
         values="0 0 0 0 0 0 0 0 0 0 0 0 0 0 0 0.21 0.72 0.07 0 0 "
         result="result1"
         id="feColorMatrix1338" />
      <feColorMatrix
         values="1 0 0 0 0 0 1 0 0 0 0 0 1 0 0 0 0 0 2 0 "
         result="result9"
         id="feColorMatrix1340" />
      <feComposite
         in2="result9"
         in="SourceGraphic"
         operator="in"
         result="result4"
         id="feComposite1342" />
      <feFlood
         result="result2"
         flood-color="rgb(0,0,0)"
         id="feFlood1344" />
      <feComposite
         in2="result9"
         operator="in"
         result="result10"
         id="feComposite1346" />
      <feComposite
         in2="result4"
         operator="atop"
         id="feComposite1348" />
      <feGaussianBlur
         stdDeviation="3"
         result="result8"
         id="feGaussianBlur1350" />
      <feOffset
         dx="3"
         dy="3"
         result="result3"
         in="result8"
         id="feOffset1352" />
      <feFlood
         flood-opacity="1"
         flood-color="rgb(219,173,62)"
         result="result5"
         id="feFlood1354" />
      <feMerge
         result="result6"
         id="feMerge1362">
        <feMergeNode
           in="result5"
           id="feMergeNode1356" />
        <feMergeNode
           in="result3"
           id="feMergeNode1358" />
        <feMergeNode
           in="result4"
           id="feMergeNode1360" />
      </feMerge>
      <feComposite
         in2="SourceGraphic"
         operator="in"
         result="fbSourceGraphic"
         id="feComposite1364" />
      <feColorMatrix
         result="fbSourceGraphicAlpha"
         in="fbSourceGraphic"
         values="0 0 0 -1 0 0 0 0 -1 0 0 0 0 -1 0 0 0 0 1 0"
         id="feColorMatrix1380" />
      <feFlood
         id="feFlood1382"
         flood-opacity="1"
         flood-color="rgb(255,255,255)"
         result="flood"
         in="fbSourceGraphic" />
      <feComposite
         in2="fbSourceGraphic"
         id="feComposite1384"
         in="flood"
         operator="in"
         result="composite1" />
      <feGaussianBlur
         id="feGaussianBlur1386"
         in="composite1"
         stdDeviation="13.8138"
         result="blur" />
      <feOffset
         id="feOffset1388"
         dx="0"
         dy="0"
         result="offset" />
      <feComposite
         in2="offset"
         id="feComposite1390"
         in="fbSourceGraphic"
         operator="over"
         result="composite2" />
    </filter>
  </defs>
  <sodipodi:namedview
     id="base"
     pagecolor="#ffffff"
     bordercolor="#666666"
     borderopacity="1.0"
     inkscape:pageopacity="0.0"
     inkscape:pageshadow="2"
     inkscape:zoom="0.7"
     inkscape:cx="638.21679"
     inkscape:cy="571.22439"
     inkscape:document-units="mm"
     inkscape:current-layer="layer4"
     inkscape:document-rotation="0"
     showgrid="false"
     inkscape:window-width="1920"
     inkscape:window-height="1027"
     inkscape:window-x="1200"
     inkscape:window-y="25"
     inkscape:window-maximized="1"
     inkscape:lockguides="true" />
  <metadata
     id="metadata5">
    <rdf:RDF>
      <cc:Work
         rdf:about="">
        <dc:format>image/svg+xml</dc:format>
        <dc:type
           rdf:resource="http://purl.org/dc/dcmitype/StillImage" />
        <dc:title />
      </cc:Work>
    </rdf:RDF>
  </metadata>
  <g
     inkscape:groupmode="layer"
     id="layer3"
     inkscape:label="background"
     sodipodi:insensitive="true">
    <rect
       style="fill:#25404d;fill-opacity:1;stroke-width:0.264583"
       id="rect1020"
       width="210"
       height="297"
       x="1.2434498e-14"
       y="1.2434498e-14"
       inkscape:label="background"
       sodipodi:insensitive="true" />
  </g>
  <g
     inkscape:groupmode="layer"
     id="layer2"
     inkscape:label="shield"
     sodipodi:insensitive="true">
    <g
       id="g1281"
       transform="translate(174.26877,10.429181)"
       inkscape:label="shield group"
       sodipodi:insensitive="true">
      <path
         id="path2122"
         style="display:block;visibility:visible;fill:#ffffff;fill-opacity:1;fill-rule:nonzero;stroke:none;stroke-width:0.810636;stroke-linecap:round;stroke-linejoin:bevel;stroke-miterlimit:4;stroke-dasharray:none;stroke-dashoffset:0;stroke-opacity:1;marker:none;marker-start:none;marker-mid:none;marker-end:none"
         inkscape:label="outline"
         d="m -67.033203,82.919922 c -4.944376,0.0026 -9.891422,-0.05175 -14.833985,0.05664 -1.421578,0.228093 -2.09308,1.652181 -2.589751,2.833564 -1.182986,1.478441 -2.97901,2.298119 -4.675747,3.03074 -3.127143,1.078035 -6.493014,0.715027 -9.613233,0.116422 -6.544081,-1.277141 -12.819301,-3.531866 -19.099781,-5.81471 -1.9205,-0.423488 -3.49034,1.394222 -3.83531,3.123297 -0.45146,1.917773 -0.055,3.898912 -0.20617,5.843886 -0.0768,10.720789 0.10924,21.510489 2.06506,32.083249 3.07186,17.65827 10.02506,34.8189 21.220348,48.90787 5.781835,7.28821 12.560453,13.87598 20.428894,18.88385 2.739223,1.52553 5.37188,3.27072 8.221706,4.57972 1.953932,0.32039 3.427508,-1.25511 5.0659,-2.00691 3.991615,-2.21514 7.975662,-4.52206 11.401646,-7.56989 15.463408,-12.73322 26.249426,-30.60706 31.754549,-49.76328 3.960592,-13.61443 5.313043,-27.87196 5.072827,-42.014214 -0.02447,-2.982054 0.09707,-5.975867 -0.162109,-8.948437 -0.450931,-1.528646 -1.599326,-3.268808 -3.398438,-3.150391 -2.578611,0.603703 -4.977825,1.783989 -7.519821,2.518649 -5.465985,1.816855 -10.998283,3.543302 -16.78096,3.891507 -2.379788,0.08734 -4.797978,-0.375156 -6.8633,-1.597202 -1.311664,-0.74057 -2.744946,-1.671505 -3.204859,-3.1856 -0.5295,-1.202083 -1.812153,-2.030352 -3.140038,-1.818815 -3.102416,-0.02861 -6.204961,-0.0057 -9.307428,5.5e-5 z"
         sodipodi:insensitive="true" />
      <path
         id="path2282"
         style="display:block;visibility:visible;fill:#25404d;fill-opacity:1;fill-rule:nonzero;stroke:none;stroke-width:0.810636;stroke-linecap:round;stroke-linejoin:bevel;stroke-miterlimit:4;stroke-dasharray:none;stroke-dashoffset:0;stroke-opacity:1;marker:none;marker-start:none;marker-mid:none;marker-end:none"
         d="m -81.519055,85.560581 c -0.11504,2.104448 -3.121543,4.08299 -5.049305,5.054274 -1.927749,0.971283 -3.635425,1.391505 -5.516975,1.5166 -3.531579,0.227615 -6.99208,-0.435026 -10.441735,-1.277921 -5.45302,-1.363371 -10.78741,-3.170438 -16.03572,-5.183448 -0.67489,1.446432 0,0 -0.67489,1.446432 0.0534,8.313352 -0.22501,16.646772 0.51935,24.937542 1.28514,15.45046 5.25201,30.7683 12.46125,44.437 6.784919,12.86951 16.364318,24.2956 28.19518,32.50194 l 8.742631,5.05161 8.842857,-5.05161 c 11.83086,-8.20634 21.410258,-19.63243 28.195177,-32.50194 7.20924,-13.6687 11.176117,-28.98654 12.461256,-44.437 0.74435,-8.29077 0.465947,-16.62419 0.519348,-24.937542 -0.674894,-1.446432 0,0 -0.674894,-1.446432 -5.248301,2.01301 -10.582695,3.820077 -16.035713,5.183448 -3.449661,0.842895 -6.91016,1.505536 -10.441741,1.277921 -1.88155,-0.125095 -3.589226,-0.545317 -5.516975,-1.5166 -1.92776,-0.971284 -4.934265,-2.949826 -5.049306,-5.054274 h -12.249896 z"
         inkscape:label="body"
         sodipodi:nodetypes="cscccccccccccccccsccc"
         sodipodi:insensitive="true" />
    </g>
  </g>
  <g
     inkscape:groupmode="layer"
     id="layer4"
     inkscape:label="swords"
     sodipodi:insensitive="true">
    <g
       id="g2298"
       transform="translate(-2.8855805)"
       inkscape:label="swords group"
       sodipodi:insensitive="true">
      <g
         id="g2259"
         inkscape:label="knights_sword group"
         transform="matrix(0.76690499,-0.31766245,0.31766245,0.76690499,48.01475,-117.69338)"
         sodipodi:insensitive="true">
        <path
           id="path2246"
           style="fill:#ffffff;fill-opacity:1;fill-rule:nonzero;stroke:none;stroke-width:0.0220157"
           d="m -130.22656,348.68164 c -2.26534,1.18675 -4.53144,2.37205 -6.79688,3.55859 0,1.71159 0,3.42318 0,5.13477 -10.50255,-0.008 -21.03157,0.0156 -31.51758,-0.0117 -0.45555,-2.33997 -3.06625,-4.20109 -5.403,-3.4742 -0.9521,0.55541 -0.5823,1.7494 -0.64192,2.63436 0,5.65429 0,11.30859 0,16.96289 2.22301,0.4676 4.89088,-0.49312 5.76373,-2.71304 0.24669,-0.45653 0.12481,-1.1192 0.8519,-0.87485 10.31562,0 20.63125,0 30.94687,0 0,1.71159 0,3.42317 0,5.13476 2.52392,1.32194 5.04844,2.64274 7.57227,3.96485 0,-3.00977 0,-6.01953 0,-9.0293 43.192719,1.85321 86.385341,3.70889 129.57812312,5.56055 C 6.8195458,371.56491 13.511758,367.59988 20.205078,363.63672 13.511759,359.67356 6.8195456,355.70853 0.12695312,351.74414 -43.065829,353.5958 -86.258451,355.45148 -129.45117,357.30469 c 0,-3.00977 0,-6.01953 0,-9.0293 -0.25847,0.13542 -0.51693,0.27083 -0.77539,0.40625 z"
           inkscape:label="outline"
           sodipodi:insensitive="true" />
        <path
           id="path1822"
           style="fill:#25404d;fill-opacity:1;fill-rule:nonzero;stroke:none;stroke-width:0.0220157"
           d="m -131.03819,350.90077 -4.39659,2.30005 v 7.2081 l -3.22721,3.22754 3.22721,3.22755 v 7.20842 l 4.39659,2.30004 v -8.06272 -1.44349 l 3.2298,-3.2298 -3.2298,-3.2298 v -1.44316 z m 0,8.06273 4.79068,4.67296 -4.79068,4.67329 130.761432,5.61498 17.36383,-10.28827 -17.36383,-10.28761 z m -41.95961,-3.64194 v 16.63046 c 1.62696,0 2.94793,-1.31905 2.94793,-2.946 V 358.2669 c 0,-1.62675 -1.32097,-2.94534 -2.94793,-2.94534 z m 3.69419,3.64194 v 9.34625 h 33.62696 l -4.67393,-4.67329 4.67393,-4.67296 z"
           inkscape:label="body"
           sodipodi:insensitive="true" />
        <path
           id="path1830"
           style="fill:#ffffff;fill-opacity:1;fill-rule:nonzero;stroke:none;stroke-width:0.0220157"
           d="m -0.594088,354.61271 -127.502622,5.47501 3.63905,3.54874 H 14.636102 Z m -167.692372,5.43147 v 6.86078 h 0.66047 v -6.20031 h 2.00786 v 6.20031 h 0.66047 v -6.20031 h 2.00786 v 6.20031 h 0.66047 v -6.20031 h 2.00786 v 6.20031 h 0.66047 v -6.20031 h 2.00786 v 6.20031 h 0.66047 v -6.20031 h 2.00786 v 6.20031 h 0.66047 v -6.20031 h 2.0056 v 6.20031 h 0.66048 v -6.20031 h 2.00785 v 6.20031 h 0.66048 v -6.20031 h 2.00753 v 6.20031 h 0.66048 v -6.20031 h 2.00785 v 6.20031 h 0.66047 v -6.20031 h 2.00787 v 6.20031 h 0.66047 v -6.20031 h 2.36034 v -0.66047 z m 35.05111,1.39383 c -1.21527,0 -2.19943,0.98406 -2.19943,2.19845 0,1.21438 0.98416,2.19878 2.19943,2.19878 1.21306,0 2.19716,-0.9844 2.19716,-2.19878 0,-1.21439 -0.9841,-2.19845 -2.19716,-2.19845 z"
           inkscape:label="innerd"
           sodipodi:insensitive="true" />
      </g>
      <g
         id="g2254"
         inkscape:label="cutlass group"
         transform="matrix(0.76690499,0.31766245,-0.31766245,0.76690499,127.3625,-135.419)"
         sodipodi:insensitive="true">
        <path
           id="path2241"
           style="fill:#ffffff;fill-opacity:1;fill-rule:nonzero;stroke:none;stroke-width:0.0220157"
           d="m 64.919922,347.70898 c -8.123861,6.75946 -17.359694,12.29431 -27.556409,15.19946 -1.44799,0.42988 -2.904691,0.82937 -4.357654,1.24195 12.848406,8.5346 27.557252,14.31159 42.842805,16.47597 9.43249,1.41064 19.076273,1.29305 28.514356,0.19681 25.73902,-2.46645 51.47804,-4.93289 77.21706,-7.39934 0.5099,2.05572 1.30693,4.02833 2.23242,5.92969 1.25781,0 2.51563,0 3.77344,0 0,-2.00456 0,-4.00912 0,-6.01368 12.38287,1.87913 25.05122,1.88842 37.43359,0.002 0.93333,1.7913 3.91873,1.91662 4.83203,0.0391 0.7415,-1.39017 0.2513,-3.00847 0.39348,-4.50195 -0.0457,-2.39012 0.13346,-4.8035 -0.13559,-7.17767 -0.50486,-1.8952 -3.20682,-2.58291 -4.57429,-1.18171 -0.35457,0.26875 -0.38887,0.9136 -0.96756,0.59866 -12.23841,-1.81894 -24.74953,-1.78879 -36.98166,0.0693 0,-2.00391 0,-4.00781 0,-6.01172 -1.25912,0 -2.51823,0 -3.77735,0 -0.98542,2.06724 -1.84432,4.2075 -2.36132,6.44336 -26.7073,-0.0651 -53.48457,-1.04005 -79.91726,-4.84492 -10.094575,-1.49437 -20.150973,-3.42575 -29.890854,-6.58972 -2.211324,-0.74403 -4.377925,-1.62467 -6.457515,-2.6845 -0.08724,0.0697 -0.17448,0.13932 -0.261719,0.20898 z"
           inkscape:label="outline"
           sodipodi:insensitive="true" />
        <path
           id="path1880"
           style="fill:#25404d;fill-opacity:1;fill-rule:nonzero;stroke:none;stroke-width:0.0220157"
           d="m 65.383325,349.37248 c -9.535008,7.8726 -19.038778,12.75677 -28.518308,15.33306 0.107876,0.0663 0.216215,0.1329 0.324752,0.20027 18.805388,11.65952 40.914286,16.83763 62.939911,14.72742 l 81.56662,-7.81473 c -0.62524,-2.86975 -0.62524,-5.73948 0,-8.60965 -91.559415,0 -116.312975,-13.83637 -116.312975,-13.83637 z m 119.445705,7.39031 c -3.28694,7.00055 -3.28694,14.00112 0,21.0019 h 1.16904 v -21.0019 z m 21.49145,4.58557 c -6.39749,0 -12.79503,0.50214 -19.13336,1.50606 v 8.81865 c 12.67666,2.00762 25.59098,2.00762 38.26542,0 v -8.81865 c -6.33722,-1.00392 -12.73456,-1.50606 -19.13206,-1.50606 z m 21.14218,0 c -0.66047,0 -1.19775,0.53597 -1.19775,1.19711 v 9.43655 c 0,0.66092 0.53728,1.19711 1.19775,1.19711 0.66049,0 1.19744,-0.53619 1.19744,-1.19711 v -9.43655 c 0,-0.66114 -0.53695,-1.19711 -1.19744,-1.19711 z"
           inkscape:label="body"
           sodipodi:insensitive="true" />
        <path
           id="path1882"
           style="fill:#ffffff;fill-opacity:1;fill-rule:nonzero;stroke:none;stroke-width:0.0220157"
           d="m 206.26372,362.59609 -8.9957,8.99507 c 0.44251,0.0333 0.88514,0.0597 1.32546,0.088 l 9.07245,-9.07116 c -0.46672,-0.005 -0.93547,-0.0122 -1.40221,-0.0118 z m -3.41685,0.0545 c -0.48654,0.014 -0.97532,0.0291 -1.46187,0.049 l -8.48487,8.48422 c 0.42712,0.0476 0.85424,0.0881 1.28353,0.13126 z m 8.104,0.0351 -9.1608,9.16049 c 0.45792,0.0174 0.91588,0.0272 1.37382,0.0393 l 9.1363,-9.13728 c -0.44911,-0.0222 -0.9002,-0.0452 -1.34932,-0.0626 z m -13.12816,0.21252 c -0.51076,0.0361 -1.02142,0.0773 -1.53218,0.11998 l -7.61541,7.61637 c 0.4117,0.0608 0.82578,0.11694 1.23966,0.17351 z m 17.64569,0.0458 -8.98699,8.98634 c 0.47554,0 0.95118,-0.007 1.42671,-0.0132 l 8.86349,-8.8638 c -0.43591,-0.0376 -0.8695,-0.0763 -1.30321,-0.10932 z m 4.36337,0.41053 -8.46713,8.46777 c 0.49314,-0.0207 0.98838,-0.0421 1.48154,-0.0687 l 8.24719,-8.24655 c -0.42049,-0.0515 -0.84111,-0.10521 -1.2616,-0.15253 z m -27.2709,0.0297 c -0.53499,0.0614 -1.07201,0.12641 -1.607,0.19511 l -2.51643,2.51642 v 1.41318 z m 31.49592,0.52114 -7.59318,7.59447 c 0.51737,-0.0436 1.03448,-0.0889 1.55186,-0.13932 l 6.1887,-6.18838 v -1.24612 c -0.0484,-0.007 -0.099,-0.0134 -0.14738,-0.0207 z m -180.321967,2.34134 c -0.0031,0.006 0.08008,0.0497 0.245419,0.12803 0.166658,0.0764 0.413799,0.18992 0.737871,0.33829 0.325832,0.14554 0.728862,0.32537 1.204846,0.53761 0.23843,0.10545 0.495263,0.21925 0.769798,0.34056 0.276073,0.11712 0.563013,0.26019 0.882024,0.37312 0.632955,0.23976 1.336022,0.50648 2.105254,0.79818 0.385056,0.1453 0.786238,0.29676 1.203877,0.4544 0.419844,0.15102 0.863825,0.28381 1.319331,0.43439 0.456605,0.14752 0.928756,0.30022 1.416402,0.45763 0.243711,0.0788 0.491186,0.15859 0.742385,0.23961 0.251418,0.081 0.505847,0.16667 0.769152,0.23381 1.048609,0.28709 2.156478,0.59077 3.319133,0.90912 4.67327,1.18576 10.32034,2.23364 16.62498,2.91085 6.30464,0.67281 13.25689,0.97268 20.51525,0.94846 14.525755,-0.0356 30.240035,-1.4674 44.778565,-2.87377 7.27201,-0.70361 14.25758,-1.38614 20.6723,-1.89692 6.41494,-0.5145 12.25808,-0.85153 17.22483,-0.95522 l -0.0242,-1.21065 c -5.4643,0.11955 -11.67728,0.51146 -18.35421,1.081 -6.67869,0.56472 -13.82324,1.31293 -21.17605,2.05882 -14.69945,1.50125 -30.26154,2.96393 -44.510565,3.0379 -1.78041,0.032 -3.53831,-0.01 -5.27183,-0.0216 -0.86676,0 -1.72611,-0.0417 -2.57901,-0.0648 -0.85288,-0.0271 -1.69881,-0.0535 -2.53739,-0.0797 -0.83748,-0.0462 -1.66728,-0.0923 -2.48935,-0.13739 -0.41103,-0.0229 -0.82035,-0.0456 -1.22742,-0.068 -0.20364,-0.0112 -0.40632,-0.0223 -0.60887,-0.0335 -0.2021,-0.0165 -0.40335,-0.0331 -0.60435,-0.0494 -0.80423,-0.0656 -1.60007,-0.13051 -2.38648,-0.19479 -0.3932,-0.0319 -0.78434,-0.0634 -1.17291,-0.0951 -0.38792,-0.0421 -0.7733,-0.0837 -1.15615,-0.12513 -6.13182,-0.62986 -11.60408,-1.6149 -16.12963,-2.72251 -4.540742,-1.06798 -8.086011,-2.38016 -10.541425,-3.25043 -1.207783,-0.49028 -2.145593,-0.87081 -2.781848,-1.12906 -0.319449,-0.12615 -0.562889,-0.2223 -0.726907,-0.28702 -0.164679,-0.063 -0.250415,-0.0925 -0.252837,-0.0867 z m 180.469347,2.28746 -2.39971,2.40002 c 0.546,-0.0707 1.09424,-0.14824 1.64022,-0.22639 l 0.75949,-0.76012 z"
           inkscape:label="innerd"
           sodipodi:insensitive="true" />
      </g>
    </g>
  </g>
  <g
     inkscape:label="ruby_logo"
     inkscape:groupmode="layer"
     id="layer1"
     sodipodi:insensitive="true">
    <g
       style="overflow:visible"
       id="g1187"
       transform="matrix(0.33922432,0,0,0.33922432,75.211435,79.767647)"
       inkscape:label="logo group"
       sodipodi:insensitive="true">
      <path
         id="polygon1211"
         style="clip-rule:evenodd;fill:#ffffff;fill-opacity:1;fill-rule:evenodd;filter:url(#filter1366)"
         d="m 68.563136,75.506109 c -1.00409,-0.32527 -34.64035,10.03482 -50.71289,14.94921 l -0.92187,1.92579 -40.79102,37.068361 -0.0351,0.01 c -0.0392,0.0414 -0.0724,0.0817 -0.11133,0.12305 l -0.12891,0.11719 0.0312,-0.01 c -26.01185,27.71925 -7.61971,47.66774 0.74219,56.52344 l -0.14453,-0.0371 110.59765,96.54101 0.0566,-0.0488 0.30468,0.26757 -0.11328,-0.13281 0.625,-0.83398 111.537114,-95.70899 -0.26758,0.0898 c 3.51235,-3.31582 6.5983,-6.97825 8.93946,-10.97071 l 0.0254,0.0332 c 7.41341,-11.99291 6.6468,-25.28386 -3.3711,-39.22657 l 0.0117,0.004 -0.0273,-0.0273 -38.36914,-38.720711 -0.1543,-0.89257 -41.88281,-19.07032 c -18.53256,-0.67104 -54.835764,-1.63324 -55.839854,-1.97265 z m 18.74805,207.019531 0.0156,0.26758 -0.13868,-0.16211 z"
         sodipodi:nodetypes="sccccccccccccccccccccccccsscccc"
         inkscape:label="glow"
         sodipodi:insensitive="true" />
      <g
         id="g1209"
         transform="rotate(45,22.201745,114.75715)"
         inkscape:label="logo"
         sodipodi:insensitive="true">
        <polygon
           style="fill:url(#linearGradient3448);fill-rule:evenodd"
           clip-rule="evenodd"
           points="153.5,130.41 40.38,197.58 186.849,187.641 198.13,39.95 "
           id="polygon3282"
           sodipodi:insensitive="true"
           inkscape:label="logo_part_polygon_8" />
        <polygon
           style="fill:url(#linearGradient1281);fill-rule:evenodd"
           clip-rule="evenodd"
           points="187.089,187.54 174.5,100.65 140.209,145.93 "
           id="polygon3293"
           sodipodi:insensitive="true"
           inkscape:label="logo_part_polygon_7" />
        <polygon
           style="fill:url(#linearGradient1283);fill-rule:evenodd"
           clip-rule="evenodd"
           points="187.259,187.54 95.03,180.3 40.87,197.391 "
           id="polygon3304"
           sodipodi:insensitive="true"
           inkscape:label="logo_part_polygon_6" />
        <polygon
           style="fill:url(#linearGradient1285);fill-rule:evenodd"
           clip-rule="evenodd"
           points="41,197.41 64.04,121.93 13.34,132.771 "
           id="polygon3319"
           sodipodi:insensitive="true"
           inkscape:label="logo_part_polygon_5" />
        <polygon
           style="fill:url(#linearGradient1287);fill-rule:evenodd"
           clip-rule="evenodd"
           points="140.2,146.18 119,63.14 58.33,120.01 "
           id="polygon3334"
           sodipodi:insensitive="true"
           inkscape:label="logo_part_polygon_4" />
        <polygon
           style="fill:url(#linearGradient1289);fill-rule:evenodd"
           clip-rule="evenodd"
           points="193.32,64.31 135.97,17.47 120,69.1 "
           id="polygon3349"
           sodipodi:insensitive="true"
           inkscape:label="logo_part_polygon_3" />
        <polygon
           style="fill:url(#linearGradient1291);fill-rule:evenodd"
           clip-rule="evenodd"
           points="166.5,0.77 132.77,19.41 111.49,0.52 "
           id="polygon3362"
           sodipodi:insensitive="true"
           inkscape:label="logo_part_polygon_2" />
        <polygon
           style="fill:url(#linearGradient1293);fill-rule:evenodd"
           clip-rule="evenodd"
           points="0,158.09 14.13,132.32 2.7,101.62 "
           id="polygon3375"
           sodipodi:insensitive="true"
           inkscape:label="logo_part_polygon_1" />
        <path
           style="fill:#ffffff;fill-rule:evenodd"
           inkscape:connector-curvature="0"
           clip-rule="evenodd"
           d="m 1.94,100.65 11.5,32.62 49.97,-11.211 57.05,-53.02 L 136.56,17.9 111.209,0 68.109,16.13 C 54.53,28.76 28.18,53.75 27.23,54.22 26.29,54.7 9.83,85.81 1.94,100.65 Z"
           id="path3377"
           sodipodi:insensitive="true"
           inkscape:label="logo_part_10" />
        <path
           style="fill:url(#linearGradient1295);fill-rule:evenodd"
           inkscape:connector-curvature="0"
           clip-rule="evenodd"
           d="m 42.32,42.05 c 29.43,-29.18 67.37,-46.42 81.93,-31.73 14.551,14.69 -0.88,50.39 -30.31,79.56 -29.43,29.17 -66.9,47.36 -81.45,32.67 -14.56,-14.68 0.4,-51.33 29.83,-80.5 z"
           id="path3400"
           sodipodi:insensitive="true"
           inkscape:label="logo_part_9" />
        <path
           style="fill:url(#linearGradient1297);fill-rule:evenodd"
           inkscape:connector-curvature="0"
           clip-rule="evenodd"
           d="m 41,197.38 22.86,-75.72 75.92,24.39 C 112.33,171.79 81.8,193.55 41,197.38 Z"
           id="path3413"
           sodipodi:insensitive="true"
           inkscape:label="logo_part_8" />
        <path
           style="fill:url(#linearGradient1299);fill-rule:evenodd"
           inkscape:connector-curvature="0"
           clip-rule="evenodd"
           d="m 120.56,68.89 19.49,77.2 C 162.98,121.98 183.56,96.06 193.639,64 Z"
           id="path3424"
           sodipodi:insensitive="true"
           inkscape:label="logo_part_7" />
        <path
           style="fill:url(#linearGradient1301);fill-rule:evenodd"
           inkscape:connector-curvature="0"
           clip-rule="evenodd"
           d="m 193.44,64.39 c 7.8,-23.54 9.6,-57.31 -27.181,-63.58 l -30.18,16.67 z"
           id="path3435"
           sodipodi:insensitive="true"
           inkscape:label="logo_part_6" />
        <path
           style="fill:#9e1209;fill-rule:evenodd"
           inkscape:connector-curvature="0"
           clip-rule="evenodd"
           d="m 0,157.75 c 1.08,38.851 29.11,39.43 41.05,39.771 L 13.47,133.11 Z"
           id="path3437"
           sodipodi:insensitive="true"
           inkscape:label="logo_part_5" />
        <path
           style="fill:url(#radialGradient1303);fill-rule:evenodd"
           inkscape:connector-curvature="0"
           clip-rule="evenodd"
           d="m 120.669,69.01 c 17.62,10.83 53.131,32.58 53.851,32.98 1.119,0.63 15.31,-23.93 18.53,-37.81 z"
           id="path3448"
           sodipodi:insensitive="true"
           inkscape:label="logo_part_4" />
        <path
           style="fill:url(#radialGradient1305);fill-rule:evenodd"
           inkscape:connector-curvature="0"
           clip-rule="evenodd"
           d="m 63.83,121.66 30.56,58.96 c 18.07,-9.8 32.22,-21.74 45.18,-34.53 z"
           id="path3459"
           sodipodi:insensitive="true"
           inkscape:label="logo_part_3" />
        <path
           style="fill:url(#linearGradient1307);fill-rule:evenodd"
           inkscape:connector-curvature="0"
           clip-rule="evenodd"
           d="m 13.35,133.19 -4.33,51.56 c 8.17,11.16 19.41,12.13 31.2,11.26 -8.53,-21.23 -25.57,-63.68 -26.87,-62.82 z"
           id="path3472"
           sodipodi:insensitive="true"
           inkscape:label="logo_part_2" />
        <path
           style="fill:url(#linearGradient1309);fill-rule:evenodd"
           inkscape:connector-curvature="0"
           clip-rule="evenodd"
           d="m 135.9,17.61 60.71,8.52 C 193.37,12.4 183.42,3.54 166.46,0.77 Z"
           id="path3485"
           sodipodi:insensitive="true"
           inkscape:label="logo_part_1" />
      </g>
    </g>
  </g>
</svg>
